<svg viewBox="0 0 25 25" fill="none" xmlns="http://www.w3.org/2000/svg"><path fill-rule="evenodd" clip-rule="evenodd" d="M12.5 0C9.105 0 8.68.015 7.347.075 2.807.283.284 2.802.076 7.345.015 8.68 0 9.106 0 12.5c0 3.395.015 3.82.075 5.154.208 4.54 2.727 7.063 7.27 7.271 1.335.06 1.76.075 5.155.075 3.395 0 3.82-.015 5.154-.075 4.536-.208 7.065-2.727 7.27-7.27.061-1.334.076-1.76.076-5.155 0-3.395-.015-3.82-.075-5.153-.204-4.536-2.726-7.063-7.27-7.271C16.321.015 15.895 0 12.5 0zm0 2.253c3.338 0 3.733.013 5.052.073 3.388.154 4.97 1.762 5.124 5.124.06 1.318.072 1.714.072 5.051 0 3.339-.013 3.733-.072 5.051-.155 3.36-1.733 4.97-5.124 5.124-1.319.06-1.712.073-5.052.073-3.338 0-3.733-.012-5.051-.073-3.396-.155-4.97-1.77-5.124-5.125-.06-1.318-.073-1.712-.073-5.051 0-3.338.014-3.732.073-5.051.155-3.361 1.733-4.97 5.124-5.124 1.319-.06 1.713-.072 5.051-.072zM6.081 12.5a6.419 6.419 0 1 1 12.838 0 6.419 6.419 0 0 1-12.838 0zm6.419 4.167a4.166 4.166 0 1 1 0-8.333 4.166 4.166 0 0 1 0 8.333zm5.172-10.839a1.5 1.5 0 1 1 3.001.001 1.5 1.5 0 0 1-3.001 0z" fill="currentColor"/></svg>
