<svg viewBox="0 0 25 20" fill="none" xmlns="http://www.w3.org/2000/svg"><path d="M25 2.368c-.92.402-1.908.672-2.946.794A5.073 5.073 0 0 0 24.31.37c-.99.578-2.088.999-3.257 1.226A5.159 5.159 0 0 0 17.308 0c-3.311 0-5.745 3.041-4.996 6.199A14.638 14.638 0 0 1 1.74.924c-1.344 2.27-.697 5.238 1.586 6.741a5.169 5.169 0 0 1-2.322-.632c-.056 2.34 1.647 4.528 4.114 5.015a5.22 5.22 0 0 1-2.317.086c.652 2.006 2.546 3.465 4.792 3.506A10.43 10.43 0 0 1 0 17.732 14.687 14.687 0 0 0 7.862 20c9.523 0 14.904-7.917 14.579-15.018A10.353 10.353 0 0 0 25 2.368z" fill="currentColor"/></svg>
