<?xml version="1.0" standalone="no"?>
<!DOCTYPE svg PUBLIC "-//W3C//DTD SVG 20010904//EN"
 "http://www.w3.org/TR/2001/REC-SVG-20010904/DTD/svg10.dtd">
<svg version="1.0" xmlns="http://www.w3.org/2000/svg"
 width="1024.000000pt" height="1024.000000pt" viewBox="0 0 1024.000000 1024.000000"
 preserveAspectRatio="xMidYMid meet">
<metadata>
Created by potrace 1.14, written by Peter Selinger 2001-2017
</metadata>
<g transform="translate(0.000000,1024.000000) scale(0.100000,-0.100000)"
fill="#000000" stroke="none">
<path d="M4848 10235 c-2 -1 -52 -6 -113 -9 -114 -8 -142 -10 -260 -26 -38 -6
-86 -12 -105 -14 -63 -8 -114 -17 -219 -37 -57 -12 -116 -23 -130 -25 -14 -3
-34 -7 -43 -10 -10 -3 -28 -7 -40 -9 -45 -8 -323 -87 -340 -96 -10 -5 -18 -8
-18 -5 0 3 -57 -16 -127 -41 -71 -25 -141 -49 -156 -54 -16 -4 -34 -13 -41
-18 -7 -6 -21 -12 -32 -14 -10 -2 -36 -11 -58 -20 -21 -9 -40 -17 -41 -17 -6
0 -160 -72 -282 -131 -249 -122 -562 -312 -755 -458 -26 -20 -68 -52 -94 -71
-26 -19 -52 -40 -58 -45 -6 -6 -36 -30 -66 -54 -114 -89 -287 -249 -424 -390
-141 -146 -141 -145 -253 -279 -136 -163 -131 -158 -178 -222 -21 -30 -42 -57
-45 -60 -8 -8 -157 -227 -187 -276 -68 -110 -163 -274 -163 -282 0 -6 -4 -12
-8 -14 -8 -3 -192 -370 -192 -383 0 -3 -10 -27 -21 -52 -144 -317 -287 -816
-348 -1219 -44 -290 -46 -326 -46 -784 0 -453 4 -523 40 -755 8 -49 17 -110
20 -135 4 -24 8 -47 11 -51 2 -3 6 -26 9 -50 8 -64 109 -466 139 -554 2 -5 4
-13 5 -17 8 -29 96 -272 131 -358 221 -553 554 -1082 965 -1535 350 -386 783
-733 1230 -989 55 -31 107 -61 115 -66 18 -12 357 -178 385 -190 11 -4 36 -15
56 -24 80 -35 268 -106 281 -106 8 0 18 -4 23 -9 6 -5 57 -23 115 -41 58 -18
124 -38 147 -46 113 -36 425 -108 588 -134 321 -51 377 -55 850 -55 359 0 529
6 600 20 11 3 46 7 77 10 31 3 63 7 70 9 7 3 36 7 65 10 28 3 57 8 65 10 7 3
31 8 52 11 47 6 62 9 146 29 36 8 76 17 90 20 131 23 584 163 715 222 17 7 55
23 85 34 256 99 799 398 971 534 14 12 36 28 49 36 31 21 194 142 200 149 3 3
28 24 55 46 28 22 55 44 61 50 6 5 37 32 68 59 188 162 443 423 583 599 32 39
60 74 64 77 3 3 39 50 80 105 137 181 217 305 399 615 132 226 350 749 421
1010 7 25 14 50 15 55 20 68 85 338 90 369 3 22 7 43 9 47 4 6 6 16 20 109 4
25 9 54 11 65 3 11 7 39 10 61 2 23 7 53 9 65 3 13 8 53 11 87 3 35 7 73 10
85 25 133 25 839 -1 1022 -2 17 -6 55 -10 85 -5 52 -39 281 -50 345 -22 125
-89 396 -127 520 -17 55 -32 105 -34 110 -4 23 -44 137 -84 240 -118 310 -241
561 -416 852 -88 146 -290 440 -324 473 -3 3 -32 39 -65 80 -32 41 -64 80 -70
87 -5 6 -35 40 -65 74 -163 187 -409 426 -611 592 -121 100 -343 260 -529 379
-146 94 -430 246 -615 330 -150 68 -528 210 -590 222 -5 1 -35 10 -65 19 -218
66 -459 118 -730 157 -102 15 -162 22 -320 36 -54 5 -657 13 -662 9z"/>
</g>
</svg>
