<?xml version="1.0" standalone="no"?>
<!DOCTYPE svg PUBLIC "-//W3C//DTD SVG 20010904//EN"
 "http://www.w3.org/TR/2001/REC-SVG-20010904/DTD/svg10.dtd">
<svg version="1.0" xmlns="http://www.w3.org/2000/svg"
 width="700.000000pt" height="700.000000pt" viewBox="0 0 700.000000 700.000000"
 preserveAspectRatio="xMidYMid meet">
<metadata>
Created by potrace 1.11, written by Peter Selinger 2001-2013
</metadata>
<g transform="translate(0.000000,700.000000) scale(0.100000,-0.100000)"
fill="#000000" stroke="none">
<path d="M3230 6989 c-703 -57 -1372 -321 -1915 -756 -141 -112 -371 -337
-490 -478 -214 -254 -391 -537 -523 -835 -304 -690 -379 -1446 -216 -2183 306
-1382 1439 -2456 2834 -2686 227 -38 322 -45 580 -45 258 0 353 7 580 45 983
162 1855 747 2392 1604 177 282 329 635 413 963 278 1070 36 2205 -652 3067
-182 228 -460 491 -700 663 -663 474 -1497 706 -2303 641z m-1370 -2825 c0
-11 150 -998 155 -1021 3 -13 11 -23 18 -23 10 0 44 150 116 508 56 279 104
515 107 525 5 16 25 17 239 17 l235 0 5 -22 c6 -24 205 -1021 205 -1025 0 -2
6 -3 14 -3 18 0 13 -29 96 520 38 256 72 480 75 498 l6 32 169 0 c94 0 170 -3
170 -7 0 -3 -59 -305 -131 -670 l-131 -663 -243 0 -243 0 -7 28 c-6 25 -205
1013 -205 1019 0 2 -7 3 -15 3 -8 0 -17 -10 -20 -22 -6 -24 -205 -1021 -205
-1025 0 -2 -110 -3 -244 -3 l-244 0 -5 23 c-11 45 -257 1297 -257 1307 0 6 61
10 170 10 94 0 170 -3 170 -6z m2522 -516 c93 -469 106 -523 123 -523 17 0 30
55 124 522 l106 523 243 0 c158 0 242 -4 242 -10 0 -10 246 -1262 257 -1307
l5 -23 -169 0 -169 0 -79 525 c-70 466 -81 525 -97 525 -10 0 -20 -10 -23 -22
-6 -24 -205 -1021 -205 -1025 0 -2 -105 -3 -234 -3 l-233 0 -105 523 c-94 473
-106 522 -123 522 -15 0 -21 -9 -26 -40 -3 -22 -39 -257 -79 -522 l-74 -483
-169 0 c-131 0 -168 3 -165 13 3 6 63 308 134 670 l129 657 241 0 241 0 105
-522z"/>
</g>
</svg>
