<svg viewBox="0 0 235 42" width="235" height="42" fill="none" xmlns="http://www.w3.org/2000/svg"><path d="M110.374 28.202c-.8 0-1.527-.437-1.527-1.31V15.406h3.708V10.75h-3.708V3.335l-5.381 2.908v4.508h-3.272v4.654h3.272v12.579c0 2.472 1.527 5.09 5.89 5.09 2.036 0 3.344-.51 3.344-.51v-4.799c0-.072-1.527.437-2.326.437zM63.839 28.202c-.8 0-1.527-.437-1.527-1.31V15.406h3.708V10.75h-3.635V3.335l-5.381 2.908v4.508h-3.272v4.654h3.272v12.579c0 2.472 1.527 5.09 5.89 5.09 2.035 0 3.344-.51 3.344-.51v-4.799c-.073-.072-1.527.437-2.4.437zM42.461 10.17c-2.108 0-4.653 1.308-5.816 3.199l-.364-2.69h-4.799v22.394h5.38V20.131c0-3.054 2.545-4.944 4.872-4.944 3.054 0 4.145 2.617 4.145 5.09v12.796h5.38V19.985c0-6.325-3.126-9.816-8.798-9.816zM205.188 22.894c0 3.054-2.617 4.944-4.944 4.944-2.545 0-3.418-1.309-3.418-5.09V10.752h-5.38v12.58c0 6.616 2.69 9.815 8.143 9.815 2.254 0 4.581-1.018 5.89-2.981l.218 2.472h4.799V10.751h-5.381v12.143h.073zM150.22 28.202c-.8 0-1.527-.437-1.527-1.31V15.406h3.708V10.75h-3.708V3.335l-5.381 2.908v4.508h-3.272v4.654h3.272v12.579c0 2.472 1.527 5.09 5.89 5.09 2.036 0 3.344-.51 3.344-.51v-4.799c.073-.072-1.454.437-2.326.437zM75.69 10.678h-5.38v22.395h5.38V10.678zM73 .935a3.258 3.258 0 0 0-3.272 3.272A3.258 3.258 0 0 0 73 7.48a3.258 3.258 0 0 0 3.272-3.272C76.272 2.39 74.745.935 73 .935zM162.217 10.678h-5.381v22.395h5.381V10.678zM159.526.935a3.258 3.258 0 0 0-3.272 3.272 3.258 3.258 0 0 0 3.272 3.272 3.259 3.259 0 0 0 3.272-3.272 3.259 3.259 0 0 0-3.272-3.272zM235.001 22.603c0-3.708-.873-6.835-2.618-9.016-1.672-2.109-4.145-3.418-7.489-3.418-2.981 0-5.744 1.164-7.708 3.418-1.963 2.181-3.053 5.162-3.053 8.434 0 7.344 5.526 11.561 10.615 11.561 5.163 0 8.435-2.254 9.598-5.598l-5.09-1.455c-.872 1.31-2.108 2.109-4.58 2.109-2.982 0-4.799-2.472-4.945-4.872h15.124c.146 0 .146-.654.146-1.163zm-15.052-3.054c.364-2.108 1.673-4.435 4.872-4.435s4.363 2.181 4.581 4.435h-9.453zM11.56 2.026L.29 33.073h5.889L8.36 26.82h11.852l2.181 6.253h6.253L17.376 2.026H11.56zm-1.455 19.56L14.25 9.587l4.071 11.997h-8.216zM78.816 26.748c.655 4.217 4.363 6.907 9.598 6.907 6.399 0 9.453-2.908 9.453-6.762 0-4.072-2.836-6.035-7.344-7.27-4.8-1.31-5.526-1.746-5.526-2.837 0-.727.8-1.89 3.054-1.89 2.472 0 3.78 1.163 4.217 2.545l5.235-.873c-1.018-3.78-4.29-6.253-9.452-6.253-4.8 0-8.362 3.054-8.362 6.69 0 3.78 2.4 5.453 6.98 6.544 4.726 1.163 5.89 2.035 5.89 3.126 0 1.236-1.236 2.109-4 2.109-2.253 0-3.998-1.164-4.362-2.982l-5.38.946zM181.921 13.369c-.873-1.745-2.981-3.127-5.599-3.127-5.889 0-10.397 5.09-10.397 11.852 0 6.69 4.29 11.561 10.106 11.561 2.327 0 4.727-1.454 5.672-3.49v11.78h5.38V10.75h-4.798l-.364 2.618zm-5.308 15.197c-2.981 0-5.381-2.982-5.381-6.69s2.4-6.69 5.381-6.69c2.981 0 5.381 2.982 5.381 6.69s-2.4 6.69-5.381 6.69zM137.494 28.202c-.581 0-1.09-.364-1.09-1.018V10.751h-4.799l-.364 2.618c-1.091-2.036-3.345-3.127-5.671-3.127-5.89 0-10.398 5.09-10.398 11.852 0 6.69 4.29 11.561 10.107 11.561 2.617 0 5.308-1.818 6.108-3.635 0 1.527 1.454 3.054 4.144 3.054 1.963 0 3.636-.51 3.636-.51v-4.798c.145-.073-.946.436-1.673.436zm-11.561.363c-2.981 0-5.38-2.98-5.38-6.689 0-3.708 2.399-6.69 5.38-6.69s5.381 2.982 5.381 6.69-2.4 6.69-5.381 6.69z" fill="#fff"/></svg>
