<?xml version="1.0" encoding="UTF-8" standalone="no"?>
<!-- Created with Inkscape (http://www.inkscape.org/) -->

<svg
   version="1.1"
   id="svg2"
   xml:space="preserve"
   width="279.77332"
   height="140.65334"
   viewBox="0 0 279.77332 140.65334"
   sodipodi:docname="CPNV-logo2lignes-blanc.eps"
   xmlns:inkscape="http://www.inkscape.org/namespaces/inkscape"
   xmlns:sodipodi="http://sodipodi.sourceforge.net/DTD/sodipodi-0.dtd"
   xmlns="http://www.w3.org/2000/svg"
   xmlns:svg="http://www.w3.org/2000/svg"><defs
     id="defs6" /><sodipodi:namedview
     id="namedview4"
     pagecolor="#ffffff"
     bordercolor="#666666"
     borderopacity="1.0"
     inkscape:pageshadow="2"
     inkscape:pageopacity="0.0"
     inkscape:pagecheckerboard="0" /><g
     id="g8"
     inkscape:groupmode="layer"
     inkscape:label="ink_ext_XXXXXX"
     transform="matrix(1.3333333,0,0,-1.3333333,0,140.65333)"><g
       id="g10"
       transform="scale(0.1)"><path
         d="m 226.84,1049.9 c 73.898,0 129.383,-18.49 166.344,-55.47 1.457,-2.469 2.945,-4.7 4.429,-6.649 3.442,-6.426 5.196,-13.09 5.196,-19.976 0,-6.426 -1.754,-12.731 -5.196,-18.867 -3.468,-6.141 -8.148,-10.958 -14.062,-14.411 -5.922,-3.445 -12.301,-5.152 -19.196,-5.152 -6.421,0 -12.578,1.707 -18.496,5.152 -2.976,1.477 -5.414,3.2 -7.402,5.196 -25.16,24.156 -62.367,36.222 -111.617,36.222 -98.621,0 -147.9494,-49.297 -147.9494,-147.886 0,-98.59 49.3284,-147.887 147.9494,-147.887 49.25,0 86.234,12.32 110.879,36.965 2.472,1.472 4.933,2.976 7.418,4.453 6.386,3.418 12.797,5.191 19.218,5.191 6.895,0 13.274,-1.773 19.196,-5.191 5.914,-3.488 10.594,-8.297 14.062,-14.438 3.442,-6.144 5.196,-12.441 5.196,-18.839 0,-6.918 -1.754,-13.329 -5.196,-19.247 -1.484,-2.472 -2.972,-4.929 -4.429,-7.351 C 356.223,624.711 300.738,606.219 226.84,606.219 78.8906,606.219 5,680.145 5,828.059 5,975.945 78.8906,1049.9 226.84,1049.9"
         style="fill:#ffffff;fill-opacity:1;fill-rule:nonzero;stroke:none"
         id="path12" /><path
         d="m 226.84,1049.9 c 73.898,0 129.383,-18.49 166.344,-55.47 1.457,-2.469 2.945,-4.7 4.429,-6.649 3.442,-6.426 5.196,-13.09 5.196,-19.976 0,-6.426 -1.754,-12.731 -5.196,-18.867 -3.468,-6.141 -8.148,-10.958 -14.062,-14.411 -5.922,-3.445 -12.301,-5.152 -19.196,-5.152 -6.421,0 -12.578,1.707 -18.496,5.152 -2.976,1.477 -5.414,3.2 -7.402,5.196 -25.16,24.156 -62.367,36.222 -111.617,36.222 -98.621,0 -147.9494,-49.297 -147.9494,-147.886 0,-98.59 49.3284,-147.887 147.9494,-147.887 49.25,0 86.234,12.32 110.879,36.965 2.472,1.472 4.933,2.976 7.418,4.453 6.386,3.418 12.797,5.191 19.218,5.191 6.895,0 13.274,-1.773 19.196,-5.191 5.914,-3.488 10.594,-8.297 14.062,-14.438 3.442,-6.144 5.196,-12.441 5.196,-18.839 0,-6.918 -1.754,-13.329 -5.196,-19.247 -1.484,-2.472 -2.972,-4.929 -4.429,-7.351 C 356.223,624.711 300.738,606.219 226.84,606.219 78.8906,606.219 5,680.145 5,828.059 5,975.945 78.8906,1049.9 226.84,1049.9 Z"
         style="fill:none;stroke:#fff;stroke-width:10;stroke-linecap:butt;stroke-linejoin:miter;stroke-miterlimit:4;stroke-dasharray:none;stroke-opacity:1"
         id="path14" /><path
         d="m 680.172,975.945 c -97.645,0.473 -146.957,-48.84 -147.942,-147.886 0.985,-98.082 50.297,-147.379 147.942,-147.887 99.535,0.508 148.832,49.805 147.851,147.887 0.981,99.046 -48.316,148.359 -147.851,147.886 z m 0,73.955 c 147.851,0 221.805,-74.986 221.805,-224.814 0,-145.414 -73.954,-218.395 -221.805,-218.867 -61.641,0.472 -110.953,14.531 -147.942,42.136 V 41.9609 c 0,-6.3711 -1.593,-12.5507 -4.792,-18.5117 C 524.254,17.5703 519.68,13.0391 513.766,9.80859 507.836,6.62891 501.695,5 495.277,5 c -6.433,0 -12.578,1.62891 -18.48,4.80859 -5.961,3.23051 -10.496,7.76171 -13.672,13.64061 -3.215,5.961 -4.809,12.1406 -4.809,18.5117 V 828.059 c 0.5,147.886 74.45,221.841 221.856,221.841"
         style="fill:#ffffff;fill-opacity:1;fill-rule:nonzero;stroke:none"
         id="path16" /><path
         d="m 680.172,975.945 c -97.645,0.473 -146.957,-48.84 -147.942,-147.886 0.985,-98.082 50.297,-147.379 147.942,-147.887 99.535,0.508 148.832,49.805 147.851,147.887 0.981,99.046 -48.316,148.359 -147.851,147.886 z m 0,73.955 c 147.851,0 221.805,-74.986 221.805,-224.814 0,-145.414 -73.954,-218.395 -221.805,-218.867 -61.641,0.472 -110.953,14.531 -147.942,42.136 V 41.9609 c 0,-6.3711 -1.593,-12.5507 -4.792,-18.5117 C 524.254,17.5703 519.68,13.0391 513.766,9.80859 507.836,6.62891 501.695,5 495.277,5 c -6.433,0 -12.578,1.62891 -18.48,4.80859 -5.961,3.23051 -10.496,7.76171 -13.672,13.64061 -3.215,5.961 -4.809,12.1406 -4.809,18.5117 V 828.059 c 0.5,147.886 74.45,221.841 221.856,221.841 z"
         style="fill:none;stroke:#fff;stroke-width:10;stroke-linecap:butt;stroke-linejoin:miter;stroke-miterlimit:4;stroke-dasharray:none;stroke-opacity:1"
         id="path18" /><path
         d="m 1057.4,643.211 c 0,-6.426 -1.61,-12.582 -4.82,-18.5 -3.19,-5.926 -7.75,-10.484 -13.67,-13.648 -5.92,-3.243 -12.06,-4.844 -18.48,-4.844 -6.44,0 -12.6,1.601 -18.5,4.844 -5.918,3.164 -10.481,7.722 -13.676,13.648 -3.188,5.918 -4.781,12.074 -4.781,18.5 v 184.848 c 0,147.886 73.927,221.841 221.807,221.841 147.9,0 221.84,-73.955 221.84,-221.841 V 643.211 c 0,-6.426 -1.62,-12.582 -4.81,-18.5 -3.23,-5.926 -7.75,-10.484 -13.68,-13.648 -5.92,-3.243 -12.06,-4.844 -18.46,-4.844 -6.42,0 -12.6,1.601 -18.51,4.844 -5.92,3.164 -10.48,7.722 -13.69,13.648 -3.19,5.918 -4.79,12.074 -4.79,18.5 v 184.848 c 0,98.589 -49.28,147.886 -147.9,147.886 -98.59,0 -147.88,-49.297 -147.88,-147.886 V 643.211"
         style="fill:#ffffff;fill-opacity:1;fill-rule:nonzero;stroke:none"
         id="path20" /><path
         d="m 1057.4,643.211 c 0,-6.426 -1.61,-12.582 -4.82,-18.5 -3.19,-5.926 -7.75,-10.484 -13.67,-13.648 -5.92,-3.243 -12.06,-4.844 -18.48,-4.844 -6.44,0 -12.6,1.601 -18.5,4.844 -5.918,3.164 -10.481,7.722 -13.676,13.648 -3.188,5.918 -4.781,12.074 -4.781,18.5 v 184.848 c 0,147.886 73.927,221.841 221.807,221.841 147.9,0 221.84,-73.955 221.84,-221.841 V 643.211 c 0,-6.426 -1.62,-12.582 -4.81,-18.5 -3.23,-5.926 -7.75,-10.484 -13.68,-13.648 -5.92,-3.243 -12.06,-4.844 -18.46,-4.844 -6.42,0 -12.6,1.601 -18.51,4.844 -5.92,3.164 -10.48,7.722 -13.69,13.648 -3.19,5.918 -4.79,12.074 -4.79,18.5 v 184.848 c 0,98.589 -49.28,147.886 -147.9,147.886 -98.59,0 -147.88,-49.297 -147.88,-147.886 z"
         style="fill:none;stroke:#fff;stroke-width:10;stroke-linecap:butt;stroke-linejoin:miter;stroke-miterlimit:4;stroke-dasharray:none;stroke-opacity:1"
         id="path22" /><path
         d="m 1929.23,1049.41 c 0,-147.918 -190.78,-443.191 -338.68,-443.191 h -73.95 v 406.691 c 0,6.39 1.64,12.58 4.84,18.5 3.19,5.92 7.75,10.48 13.67,13.64 5.92,3.22 12.08,4.85 18.45,4.85 6.44,0 12.58,-1.63 18.52,-4.85 5.91,-3.16 10.47,-7.72 13.66,-13.64 3.21,-5.92 4.81,-12.11 4.81,-18.5 V 680.172 c 98.59,0 264.72,270.633 264.72,369.238 h 73.96"
         style="fill:#ffffff;fill-opacity:1;fill-rule:nonzero;stroke:none"
         id="path24" /><path
         d="m 1929.23,1049.41 c 0,-147.918 -190.78,-443.191 -338.68,-443.191 h -73.95 v 406.691 c 0,6.39 1.64,12.58 4.84,18.5 3.19,5.92 7.75,10.48 13.67,13.64 5.92,3.22 12.08,4.85 18.45,4.85 6.44,0 12.58,-1.63 18.52,-4.85 5.91,-3.16 10.47,-7.72 13.66,-13.64 3.21,-5.92 4.81,-12.11 4.81,-18.5 V 680.172 c 98.59,0 264.72,270.633 264.72,369.238 z"
         style="fill:none;stroke:#fff;stroke-width:10;stroke-linecap:butt;stroke-linejoin:miter;stroke-miterlimit:4;stroke-dasharray:none;stroke-opacity:1"
         id="path26" /><path
         d="m 701.523,433.875 -8.656,-6.633 c -4.765,6.211 -10.5,10.91 -17.191,14.121 -6.684,3.203 -14.028,4.817 -22.039,4.817 -8.735,0 -16.84,-2.11 -24.313,-6.321 -7.437,-4.179 -13.234,-9.832 -17.316,-16.902 -4.117,-7.09 -6.156,-15.059 -6.156,-23.906 0,-13.391 4.574,-24.551 13.753,-33.477 9.165,-8.965 20.739,-13.429 34.696,-13.429 15.39,0 28.242,6.007 38.566,18.027 l 8.656,-6.551 c -5.472,-6.965 -12.3,-12.344 -20.468,-16.16 -8.164,-3.801 -17.317,-5.695 -27.418,-5.695 -19.184,0 -34.317,6.394 -45.399,19.168 -9.308,10.793 -13.961,23.808 -13.961,39.066 0,16.07 5.633,29.586 16.907,40.547 11.238,10.957 25.359,16.441 42.328,16.441 10.226,0 19.472,-2.027 27.734,-6.07 8.246,-4.043 15.008,-9.738 20.277,-17.043"
         style="fill:#ffffff;fill-opacity:1;fill-rule:nonzero;stroke:none"
         id="path28" /><path
         d="m 701.523,433.875 -8.656,-6.633 c -4.765,6.211 -10.5,10.91 -17.191,14.121 -6.684,3.203 -14.028,4.817 -22.039,4.817 -8.735,0 -16.84,-2.11 -24.313,-6.321 -7.437,-4.179 -13.234,-9.832 -17.316,-16.902 -4.117,-7.09 -6.156,-15.059 -6.156,-23.906 0,-13.391 4.574,-24.551 13.753,-33.477 9.165,-8.965 20.739,-13.429 34.696,-13.429 15.39,0 28.242,6.007 38.566,18.027 l 8.656,-6.551 c -5.472,-6.965 -12.3,-12.344 -20.468,-16.16 -8.164,-3.801 -17.317,-5.695 -27.418,-5.695 -19.184,0 -34.317,6.394 -45.399,19.168 -9.308,10.793 -13.961,23.808 -13.961,39.066 0,16.07 5.633,29.586 16.907,40.547 11.238,10.957 25.359,16.441 42.328,16.441 10.226,0 19.472,-2.027 27.734,-6.07 8.246,-4.043 15.008,-9.738 20.277,-17.043 z"
         style="fill:none;stroke:#fff;stroke-width:10;stroke-linecap:butt;stroke-linejoin:miter;stroke-miterlimit:4;stroke-dasharray:none;stroke-opacity:1"
         id="path30" /><path
         d="m 790.129,393.309 c -1.399,5.554 -3.441,10.019 -6.102,13.339 -2.656,3.329 -6.183,6.016 -10.554,8.075 -4.387,2.011 -8.993,3.039 -13.821,3.039 -7.964,0 -14.797,-2.559 -20.531,-7.696 -4.18,-3.722 -7.344,-9.308 -9.48,-16.757 z m 0,-21.868 8.797,-4.617 c -2.895,-5.652 -6.235,-10.265 -10.004,-13.711 -3.785,-3.484 -8.043,-6.144 -12.774,-7.961 -4.718,-1.804 -10.085,-2.722 -16.035,-2.722 -13.234,0 -23.59,4.336 -31.058,13.008 -7.473,8.679 -11.196,18.496 -11.196,29.433 0,10.301 3.153,19.473 9.485,27.508 8.008,10.254 18.711,15.375 32.168,15.375 13.832,0 24.883,-5.254 33.129,-15.734 5.875,-7.415 8.847,-16.653 8.961,-27.735 h -73.008 c 0.207,-9.433 3.215,-17.156 9.039,-23.176 5.808,-6.054 13.012,-9.062 21.562,-9.062 4.145,0 8.168,0.734 12.059,2.18 3.926,1.433 7.254,3.339 9.976,5.695 2.735,2.391 5.7,6.238 8.899,11.519"
         style="fill:#ffffff;fill-opacity:1;fill-rule:nonzero;stroke:none"
         id="path32" /><path
         d="m 790.129,393.309 c -1.399,5.554 -3.441,10.019 -6.102,13.339 -2.656,3.329 -6.183,6.016 -10.554,8.075 -4.387,2.011 -8.993,3.039 -13.821,3.039 -7.964,0 -14.797,-2.559 -20.531,-7.696 -4.18,-3.722 -7.344,-9.308 -9.48,-16.757 z m 0,-21.868 8.797,-4.617 c -2.895,-5.652 -6.235,-10.265 -10.004,-13.711 -3.785,-3.484 -8.043,-6.144 -12.774,-7.961 -4.718,-1.804 -10.085,-2.722 -16.035,-2.722 -13.234,0 -23.59,4.336 -31.058,13.008 -7.473,8.679 -11.196,18.496 -11.196,29.433 0,10.301 3.153,19.473 9.485,27.508 8.008,10.254 18.711,15.375 32.168,15.375 13.832,0 24.883,-5.254 33.129,-15.734 5.875,-7.415 8.847,-16.653 8.961,-27.735 h -73.008 c 0.207,-9.433 3.215,-17.156 9.039,-23.176 5.808,-6.054 13.012,-9.062 21.562,-9.062 4.145,0 8.168,0.734 12.059,2.18 3.926,1.433 7.254,3.339 9.976,5.695 2.735,2.391 5.7,6.238 8.899,11.519 z"
         style="fill:none;stroke:#fff;stroke-width:10;stroke-linecap:butt;stroke-linejoin:miter;stroke-miterlimit:4;stroke-dasharray:none;stroke-opacity:1"
         id="path34" /><path
         d="m 821.055,425.66 h 10.449 v -14.531 c 4.18,5.559 8.805,9.719 13.867,12.473 5.082,2.773 10.606,4.152 16.559,4.152 6.062,0 11.461,-1.535 16.144,-4.621 4.703,-3.086 8.172,-7.238 10.418,-12.442 2.215,-5.246 3.36,-13.351 3.36,-24.414 v -41.75 h -10.45 v 38.711 c 0,9.336 -0.382,15.578 -1.172,18.711 -1.203,5.364 -3.515,9.414 -6.949,12.11 -3.437,2.726 -7.914,4.066 -13.441,4.066 -6.301,0 -11.969,-2.074 -16.953,-6.262 -5.02,-4.172 -8.297,-9.347 -9.895,-15.519 -0.98,-4.024 -1.488,-11.383 -1.488,-22.071 v -29.746 h -10.449 v 81.133"
         style="fill:#ffffff;fill-opacity:1;fill-rule:nonzero;stroke:none"
         id="path36" /><path
         d="m 821.055,425.66 h 10.449 v -14.531 c 4.18,5.559 8.805,9.719 13.867,12.473 5.082,2.773 10.606,4.152 16.559,4.152 6.062,0 11.461,-1.535 16.144,-4.621 4.703,-3.086 8.172,-7.238 10.418,-12.442 2.215,-5.246 3.36,-13.351 3.36,-24.414 v -41.75 h -10.45 v 38.711 c 0,9.336 -0.382,15.578 -1.172,18.711 -1.203,5.364 -3.515,9.414 -6.949,12.11 -3.437,2.726 -7.914,4.066 -13.441,4.066 -6.301,0 -11.969,-2.074 -16.953,-6.262 -5.02,-4.172 -8.297,-9.347 -9.895,-15.519 -0.98,-4.024 -1.488,-11.383 -1.488,-22.071 v -29.746 h -10.449 z"
         style="fill:none;stroke:#fff;stroke-width:10;stroke-linecap:butt;stroke-linejoin:miter;stroke-miterlimit:4;stroke-dasharray:none;stroke-opacity:1"
         id="path38" /><path
         d="m 923.301,455.789 h 10.433 V 425.66 h 16.559 v -9.023 h -16.559 v -72.11 h -10.433 v 72.11 H 909.07 v 9.023 h 14.231 v 30.129"
         style="fill:#ffffff;fill-opacity:1;fill-rule:nonzero;stroke:none"
         id="path40" /><path
         d="m 923.301,455.789 h 10.433 V 425.66 h 16.559 v -9.023 h -16.559 v -72.11 h -10.433 v 72.11 H 909.07 v 9.023 h 14.231 z"
         style="fill:none;stroke:#fff;stroke-width:10;stroke-linecap:butt;stroke-linejoin:miter;stroke-miterlimit:4;stroke-dasharray:none;stroke-opacity:1"
         id="path42" /><path
         d="m 962.02,425.66 h 10.656 v -11.855 c 3.199,4.668 6.554,8.164 10.066,10.48 3.531,2.313 7.219,3.469 11.051,3.469 2.883,0 5.969,-0.941 9.247,-2.754 l -5.446,-8.789 c -2.188,0.934 -4.024,1.414 -5.528,1.414 -3.468,0 -6.824,-1.445 -10.05,-4.309 -3.231,-2.851 -5.7,-7.285 -7.391,-13.316 -1.285,-4.621 -1.949,-13.957 -1.949,-28.02 V 344.527 H 962.02 v 81.133"
         style="fill:#ffffff;fill-opacity:1;fill-rule:nonzero;stroke:none"
         id="path44" /><path
         d="m 962.02,425.66 h 10.656 v -11.855 c 3.199,4.668 6.554,8.164 10.066,10.48 3.531,2.313 7.219,3.469 11.051,3.469 2.883,0 5.969,-0.941 9.247,-2.754 l -5.446,-8.789 c -2.188,0.934 -4.024,1.414 -5.528,1.414 -3.468,0 -6.824,-1.445 -10.05,-4.309 -3.231,-2.851 -5.7,-7.285 -7.391,-13.316 -1.285,-4.621 -1.949,-13.957 -1.949,-28.02 V 344.527 H 962.02 Z"
         style="fill:none;stroke:#fff;stroke-width:10;stroke-linecap:butt;stroke-linejoin:miter;stroke-miterlimit:4;stroke-dasharray:none;stroke-opacity:1"
         id="path46" /><path
         d="m 1079.62,393.309 c -1.39,5.554 -3.41,10.019 -6.08,13.339 -2.66,3.329 -6.18,6.016 -10.57,8.075 -4.38,2.011 -8.99,3.039 -13.8,3.039 -7.98,0 -14.82,-2.559 -20.55,-7.696 -4.18,-3.722 -7.33,-9.308 -9.48,-16.757 z m 0,-21.868 8.8,-4.617 c -2.88,-5.652 -6.22,-10.265 -10,-13.711 -3.77,-3.484 -8.04,-6.144 -12.76,-7.961 -4.74,-1.804 -10.08,-2.722 -16.05,-2.722 -13.23,0 -23.59,4.336 -31.06,13.008 -7.46,8.679 -11.18,18.496 -11.18,29.433 0,10.301 3.14,19.473 9.47,27.508 8.01,10.254 18.75,15.375 32.17,15.375 13.84,0 24.88,-5.254 33.14,-15.734 5.86,-7.415 8.85,-16.653 8.97,-27.735 h -73.01 c 0.19,-9.433 3.19,-17.156 9.02,-23.176 5.82,-6.054 13.01,-9.062 21.59,-9.062 4.12,0 8.14,0.734 12.05,2.18 3.91,1.433 7.23,3.339 9.96,5.695 2.75,2.391 5.71,6.238 8.89,11.519"
         style="fill:#ffffff;fill-opacity:1;fill-rule:nonzero;stroke:none"
         id="path48" /><path
         d="m 1079.62,393.309 c -1.39,5.554 -3.41,10.019 -6.08,13.339 -2.66,3.329 -6.18,6.016 -10.57,8.075 -4.38,2.011 -8.99,3.039 -13.8,3.039 -7.98,0 -14.82,-2.559 -20.55,-7.696 -4.18,-3.722 -7.33,-9.308 -9.48,-16.757 z m 0,-21.868 8.8,-4.617 c -2.88,-5.652 -6.22,-10.265 -10,-13.711 -3.77,-3.484 -8.04,-6.144 -12.76,-7.961 -4.74,-1.804 -10.08,-2.722 -16.05,-2.722 -13.23,0 -23.59,4.336 -31.06,13.008 -7.46,8.679 -11.18,18.496 -11.18,29.433 0,10.301 3.14,19.473 9.47,27.508 8.01,10.254 18.75,15.375 32.17,15.375 13.84,0 24.88,-5.254 33.14,-15.734 5.86,-7.415 8.85,-16.653 8.97,-27.735 h -73.01 c 0.19,-9.433 3.19,-17.156 9.02,-23.176 5.82,-6.054 13.01,-9.062 21.59,-9.062 4.12,0 8.14,0.734 12.05,2.18 3.91,1.433 7.23,3.339 9.96,5.695 2.75,2.391 5.71,6.238 8.89,11.519 z"
         style="fill:none;stroke:#fff;stroke-width:10;stroke-linecap:butt;stroke-linejoin:miter;stroke-miterlimit:4;stroke-dasharray:none;stroke-opacity:1"
         id="path50" /><path
         d="m 1194.77,417.664 c -9.04,0 -16.62,-3.137 -22.79,-9.434 -6.19,-6.308 -9.28,-14.152 -9.28,-23.535 0,-6.164 1.36,-11.718 4.13,-16.601 2.74,-4.934 6.7,-8.821 11.83,-11.719 5.12,-2.863 10.53,-4.328 16.26,-4.328 5.59,0 10.87,1.465 15.81,4.375 4.94,2.891 8.86,6.965 11.78,12.168 2.93,5.226 4.4,10.695 4.4,16.387 0,5.761 -1.47,11.242 -4.36,16.406 -2.9,5.16 -6.8,9.164 -11.72,12.023 -4.92,2.852 -10.27,4.258 -16.06,4.258 z m -41.76,7.996 h 10.45 v -14.91 c 4.11,5.664 8.85,9.91 14.21,12.762 5.35,2.812 11.34,4.242 17.95,4.242 11.53,0 21.39,-4.152 29.57,-12.445 8.2,-8.309 12.31,-18.301 12.31,-30 0,-11.93 -4.06,-22.051 -12.18,-30.371 -8.12,-8.329 -17.92,-12.508 -29.4,-12.508 -6.45,0 -12.39,1.355 -17.8,4.023 -5.42,2.703 -10.31,6.707 -14.66,12.031 v -43.632 h -10.45 V 425.66"
         style="fill:#ffffff;fill-opacity:1;fill-rule:nonzero;stroke:none"
         id="path52" /><path
         d="m 1194.77,417.664 c -9.04,0 -16.62,-3.137 -22.79,-9.434 -6.19,-6.308 -9.28,-14.152 -9.28,-23.535 0,-6.164 1.36,-11.718 4.13,-16.601 2.74,-4.934 6.7,-8.821 11.83,-11.719 5.12,-2.863 10.53,-4.328 16.26,-4.328 5.59,0 10.87,1.465 15.81,4.375 4.94,2.891 8.86,6.965 11.78,12.168 2.93,5.226 4.4,10.695 4.4,16.387 0,5.761 -1.47,11.242 -4.36,16.406 -2.9,5.16 -6.8,9.164 -11.72,12.023 -4.92,2.852 -10.27,4.258 -16.06,4.258 z m -41.76,7.996 h 10.45 v -14.91 c 4.11,5.664 8.85,9.91 14.21,12.762 5.35,2.812 11.34,4.242 17.95,4.242 11.53,0 21.39,-4.152 29.57,-12.445 8.2,-8.309 12.31,-18.301 12.31,-30 0,-11.93 -4.06,-22.051 -12.18,-30.371 -8.12,-8.329 -17.92,-12.508 -29.4,-12.508 -6.45,0 -12.39,1.355 -17.8,4.023 -5.42,2.703 -10.31,6.707 -14.66,12.031 v -43.632 h -10.45 z"
         style="fill:none;stroke:#fff;stroke-width:10;stroke-linecap:butt;stroke-linejoin:miter;stroke-miterlimit:4;stroke-dasharray:none;stroke-opacity:1"
         id="path54" /><path
         d="m 1253.09,425.66 h 10.66 v -11.855 c 3.17,4.668 6.53,8.164 10.07,10.48 3.52,2.313 7.21,3.469 11.04,3.469 2.88,0 5.97,-0.941 9.25,-2.754 l -5.43,-8.789 c -2.21,0.934 -4.06,1.414 -5.55,1.414 -3.48,0 -6.84,-1.445 -10.07,-4.309 -3.22,-2.851 -5.68,-7.285 -7.37,-13.316 -1.3,-4.621 -1.94,-13.957 -1.94,-28.02 v -27.453 h -10.66 v 81.133"
         style="fill:#ffffff;fill-opacity:1;fill-rule:nonzero;stroke:none"
         id="path56" /><path
         d="m 1253.09,425.66 h 10.66 v -11.855 c 3.17,4.668 6.53,8.164 10.07,10.48 3.52,2.313 7.21,3.469 11.04,3.469 2.88,0 5.97,-0.941 9.25,-2.754 l -5.43,-8.789 c -2.21,0.934 -4.06,1.414 -5.55,1.414 -3.48,0 -6.84,-1.445 -10.07,-4.309 -3.22,-2.851 -5.68,-7.285 -7.37,-13.316 -1.3,-4.621 -1.94,-13.957 -1.94,-28.02 v -27.453 h -10.66 z"
         style="fill:none;stroke:#fff;stroke-width:10;stroke-linecap:butt;stroke-linejoin:miter;stroke-miterlimit:4;stroke-dasharray:none;stroke-opacity:1"
         id="path58" /><path
         d="m 1340.76,417.535 c -8.68,0 -16.16,-3.191 -22.39,-9.637 -6.24,-6.394 -9.35,-14.148 -9.35,-23.23 0,-5.891 1.41,-11.359 4.26,-16.418 2.84,-5.07 6.69,-8.996 11.52,-11.746 4.84,-2.777 10.16,-4.152 15.96,-4.152 5.79,0 11.09,1.375 15.91,4.152 4.87,2.75 8.7,6.676 11.55,11.746 2.83,5.059 4.26,10.527 4.26,16.418 0,9.082 -3.14,16.836 -9.39,23.23 -6.25,6.446 -13.69,9.637 -22.33,9.637 z m 0.03,10.219 c 12.5,0 22.86,-4.535 31.08,-13.566 7.46,-8.254 11.21,-18.028 11.21,-29.317 0,-11.34 -3.95,-21.25 -11.85,-29.719 -7.9,-8.484 -18.03,-12.722 -30.44,-12.722 -12.45,0 -22.64,4.238 -30.52,12.722 -7.89,8.469 -11.85,18.379 -11.85,29.719 0,11.238 3.74,20.977 11.21,29.219 8.22,9.121 18.62,13.664 31.16,13.664"
         style="fill:#ffffff;fill-opacity:1;fill-rule:nonzero;stroke:none"
         id="path60" /><path
         d="m 1340.76,417.535 c -8.68,0 -16.16,-3.191 -22.39,-9.637 -6.24,-6.394 -9.35,-14.148 -9.35,-23.23 0,-5.891 1.41,-11.359 4.26,-16.418 2.84,-5.07 6.69,-8.996 11.52,-11.746 4.84,-2.777 10.16,-4.152 15.96,-4.152 5.79,0 11.09,1.375 15.91,4.152 4.87,2.75 8.7,6.676 11.55,11.746 2.83,5.059 4.26,10.527 4.26,16.418 0,9.082 -3.14,16.836 -9.39,23.23 -6.25,6.446 -13.69,9.637 -22.33,9.637 z m 0.03,10.219 c 12.5,0 22.86,-4.535 31.08,-13.566 7.46,-8.254 11.21,-18.028 11.21,-29.317 0,-11.34 -3.95,-21.25 -11.85,-29.719 -7.9,-8.484 -18.03,-12.722 -30.44,-12.722 -12.45,0 -22.64,4.238 -30.52,12.722 -7.89,8.469 -11.85,18.379 -11.85,29.719 0,11.238 3.74,20.977 11.21,29.219 8.22,9.121 18.62,13.664 31.16,13.664 z"
         style="fill:none;stroke:#fff;stroke-width:10;stroke-linecap:butt;stroke-linejoin:miter;stroke-miterlimit:4;stroke-dasharray:none;stroke-opacity:1"
         id="path62" /><path
         d="m 1435.8,456.988 v -10.222 c -3.83,1.64 -7.12,2.449 -9.85,2.449 -2.04,0 -3.74,-0.391 -5.07,-1.199 -1.35,-0.84 -2.19,-1.778 -2.55,-2.852 -0.33,-1.074 -0.51,-3.906 -0.51,-8.535 V 425.66 h 16.93 v -9.023 h -16.93 l -0.07,-72.11 h -10.45 v 72.11 h -10.66 v 9.023 h 10.66 v 12.676 c 0,5.812 0.54,9.98 1.62,12.461 1.06,2.492 2.88,4.504 5.44,6.008 2.55,1.511 5.64,2.273 9.28,2.273 3.39,0 7.42,-0.691 12.16,-2.09"
         style="fill:#ffffff;fill-opacity:1;fill-rule:nonzero;stroke:none"
         id="path64" /><path
         d="m 1435.8,456.988 v -10.222 c -3.83,1.64 -7.12,2.449 -9.85,2.449 -2.04,0 -3.74,-0.391 -5.07,-1.199 -1.35,-0.84 -2.19,-1.778 -2.55,-2.852 -0.33,-1.074 -0.51,-3.906 -0.51,-8.535 V 425.66 h 16.93 v -9.023 h -16.93 l -0.07,-72.11 h -10.45 v 72.11 h -10.66 v 9.023 h 10.66 v 12.676 c 0,5.812 0.54,9.98 1.62,12.461 1.06,2.492 2.88,4.504 5.44,6.008 2.55,1.511 5.64,2.273 9.28,2.273 3.39,0 7.42,-0.691 12.16,-2.09 z"
         style="fill:none;stroke:#fff;stroke-width:10;stroke-linecap:butt;stroke-linejoin:miter;stroke-miterlimit:4;stroke-dasharray:none;stroke-opacity:1"
         id="path66" /><path
         d="m 1518.65,393.309 c -1.39,5.554 -3.43,10.019 -6.1,13.339 -2.65,3.329 -6.19,6.016 -10.55,8.075 -4.41,2.011 -9,3.039 -13.82,3.039 -7.96,0 -14.82,-2.559 -20.54,-7.696 -4.17,-3.722 -7.34,-9.308 -9.49,-16.757 z m 0,-21.868 8.81,-4.617 c -2.92,-5.652 -6.24,-10.265 -10.01,-13.711 -3.78,-3.484 -8.04,-6.144 -12.78,-7.961 -4.73,-1.804 -10.09,-2.722 -16.03,-2.722 -13.25,0 -23.59,4.336 -31.07,13.008 -7.47,8.679 -11.19,18.496 -11.19,29.433 0,10.301 3.16,19.473 9.47,27.508 8.03,10.254 18.74,15.375 32.17,15.375 13.85,0 24.9,-5.254 33.15,-15.734 5.87,-7.415 8.84,-16.653 8.95,-27.735 h -73.01 c 0.22,-9.433 3.23,-17.156 9.05,-23.176 5.83,-6.054 13.01,-9.062 21.56,-9.062 4.15,0 8.16,0.734 12.06,2.18 3.93,1.433 7.24,3.339 9.97,5.695 2.75,2.391 5.7,6.238 8.9,11.519"
         style="fill:#ffffff;fill-opacity:1;fill-rule:nonzero;stroke:none"
         id="path68" /><path
         d="m 1518.65,393.309 c -1.39,5.554 -3.43,10.019 -6.1,13.339 -2.65,3.329 -6.19,6.016 -10.55,8.075 -4.41,2.011 -9,3.039 -13.82,3.039 -7.96,0 -14.82,-2.559 -20.54,-7.696 -4.17,-3.722 -7.34,-9.308 -9.49,-16.757 z m 0,-21.868 8.81,-4.617 c -2.92,-5.652 -6.24,-10.265 -10.01,-13.711 -3.78,-3.484 -8.04,-6.144 -12.78,-7.961 -4.73,-1.804 -10.09,-2.722 -16.03,-2.722 -13.25,0 -23.59,4.336 -31.07,13.008 -7.47,8.679 -11.19,18.496 -11.19,29.433 0,10.301 3.16,19.473 9.47,27.508 8.03,10.254 18.74,15.375 32.17,15.375 13.85,0 24.9,-5.254 33.15,-15.734 5.87,-7.415 8.84,-16.653 8.95,-27.735 h -73.01 c 0.22,-9.433 3.23,-17.156 9.05,-23.176 5.83,-6.054 13.01,-9.062 21.56,-9.062 4.15,0 8.16,0.734 12.06,2.18 3.93,1.433 7.24,3.339 9.97,5.695 2.75,2.391 5.7,6.238 8.9,11.519 z"
         style="fill:none;stroke:#fff;stroke-width:10;stroke-linecap:butt;stroke-linejoin:miter;stroke-miterlimit:4;stroke-dasharray:none;stroke-opacity:1"
         id="path70" /><path
         d="m 1590.4,416.797 -6.72,-6.938 c -5.59,5.422 -11.05,8.125 -16.38,8.125 -3.41,0 -6.31,-1.109 -8.71,-3.355 -2.42,-2.25 -3.62,-4.856 -3.62,-7.832 0,-2.629 0.97,-5.129 2.97,-7.543 2,-2.418 6.19,-5.281 12.57,-8.563 7.76,-4.015 13.04,-7.898 15.83,-11.632 2.76,-3.766 4.11,-8.047 4.11,-12.774 0,-6.629 -2.34,-12.281 -7.03,-16.902 -4.67,-4.629 -10.5,-6.953 -17.54,-6.953 -4.68,0 -9.15,1.023 -13.4,3.066 -4.26,2.031 -7.78,4.844 -10.56,8.426 l 6.55,7.453 c 5.32,-5.996 10.99,-9.023 16.97,-9.023 4.18,0 7.76,1.347 10.67,4.023 2.95,2.695 4.43,5.859 4.43,9.48 0,2.981 -0.97,5.637 -2.91,8 -1.94,2.254 -6.33,5.137 -13.15,8.645 -7.34,3.758 -12.3,7.477 -14.96,11.172 -2.63,3.687 -3.96,7.879 -3.96,12.594 0,6.164 2.12,11.308 6.32,15.371 4.19,4.074 9.51,6.117 15.94,6.117 7.47,0 14.99,-3.645 22.58,-10.957"
         style="fill:#ffffff;fill-opacity:1;fill-rule:nonzero;stroke:none"
         id="path72" /><path
         d="m 1590.4,416.797 -6.72,-6.938 c -5.59,5.422 -11.05,8.125 -16.38,8.125 -3.41,0 -6.31,-1.109 -8.71,-3.355 -2.42,-2.25 -3.62,-4.856 -3.62,-7.832 0,-2.629 0.97,-5.129 2.97,-7.543 2,-2.418 6.19,-5.281 12.57,-8.563 7.76,-4.015 13.04,-7.898 15.83,-11.632 2.76,-3.766 4.11,-8.047 4.11,-12.774 0,-6.629 -2.34,-12.281 -7.03,-16.902 -4.67,-4.629 -10.5,-6.953 -17.54,-6.953 -4.68,0 -9.15,1.023 -13.4,3.066 -4.26,2.031 -7.78,4.844 -10.56,8.426 l 6.55,7.453 c 5.32,-5.996 10.99,-9.023 16.97,-9.023 4.18,0 7.76,1.347 10.67,4.023 2.95,2.695 4.43,5.859 4.43,9.48 0,2.981 -0.97,5.637 -2.91,8 -1.94,2.254 -6.33,5.137 -13.15,8.645 -7.34,3.758 -12.3,7.477 -14.96,11.172 -2.63,3.687 -3.96,7.879 -3.96,12.594 0,6.164 2.12,11.308 6.32,15.371 4.19,4.074 9.51,6.117 15.94,6.117 7.47,0 14.99,-3.645 22.58,-10.957 z"
         style="fill:none;stroke:#fff;stroke-width:10;stroke-linecap:butt;stroke-linejoin:miter;stroke-miterlimit:4;stroke-dasharray:none;stroke-opacity:1"
         id="path74" /><path
         d="m 1649.72,416.797 -6.75,-6.938 c -5.58,5.422 -11.04,8.125 -16.39,8.125 -3.39,0 -6.3,-1.109 -8.7,-3.355 -2.42,-2.25 -3.62,-4.856 -3.62,-7.832 0,-2.629 0.99,-5.129 2.98,-7.543 1.99,-2.418 6.17,-5.281 12.57,-8.563 7.75,-4.015 13.08,-7.898 15.86,-11.632 2.78,-3.766 4.15,-8.047 4.15,-12.774 0,-6.629 -2.36,-12.281 -7.06,-16.902 -4.72,-4.629 -10.58,-6.953 -17.59,-6.953 -4.67,0 -9.13,1.023 -13.41,3.066 -4.25,2.031 -7.79,4.844 -10.57,8.426 l 6.58,7.453 c 5.32,-5.996 10.98,-9.023 16.97,-9.023 4.18,0 7.75,1.347 10.68,4.023 2.93,2.695 4.43,5.859 4.43,9.48 0,2.981 -0.99,5.637 -2.95,8 -1.93,2.254 -6.32,5.137 -13.14,8.645 -7.31,3.758 -12.3,7.477 -14.95,11.172 -2.65,3.687 -3.95,7.879 -3.95,12.594 0,6.164 2.09,11.308 6.32,15.371 4.19,4.074 9.51,6.117 15.93,6.117 7.47,0 15.01,-3.645 22.61,-10.957"
         style="fill:#ffffff;fill-opacity:1;fill-rule:nonzero;stroke:none"
         id="path76" /><path
         d="m 1649.72,416.797 -6.75,-6.938 c -5.58,5.422 -11.04,8.125 -16.39,8.125 -3.39,0 -6.3,-1.109 -8.7,-3.355 -2.42,-2.25 -3.62,-4.856 -3.62,-7.832 0,-2.629 0.99,-5.129 2.98,-7.543 1.99,-2.418 6.17,-5.281 12.57,-8.563 7.75,-4.015 13.08,-7.898 15.86,-11.632 2.78,-3.766 4.15,-8.047 4.15,-12.774 0,-6.629 -2.36,-12.281 -7.06,-16.902 -4.72,-4.629 -10.58,-6.953 -17.59,-6.953 -4.67,0 -9.13,1.023 -13.41,3.066 -4.25,2.031 -7.79,4.844 -10.57,8.426 l 6.58,7.453 c 5.32,-5.996 10.98,-9.023 16.97,-9.023 4.18,0 7.75,1.347 10.68,4.023 2.93,2.695 4.43,5.859 4.43,9.48 0,2.981 -0.99,5.637 -2.95,8 -1.93,2.254 -6.32,5.137 -13.14,8.645 -7.31,3.758 -12.3,7.477 -14.95,11.172 -2.65,3.687 -3.95,7.879 -3.95,12.594 0,6.164 2.09,11.308 6.32,15.371 4.19,4.074 9.51,6.117 15.93,6.117 7.47,0 15.01,-3.645 22.61,-10.957 z"
         style="fill:none;stroke:#fff;stroke-width:10;stroke-linecap:butt;stroke-linejoin:miter;stroke-miterlimit:4;stroke-dasharray:none;stroke-opacity:1"
         id="path78" /><path
         d="m 1666.7,425.66 h 10.45 v -81.133 h -10.45 z m 5.2,33.418 c 2.36,0 4.4,-0.859 6.07,-2.547 1.68,-1.679 2.54,-3.738 2.54,-6.093 0,-2.364 -0.86,-4.368 -2.54,-6.047 -1.67,-1.707 -3.71,-2.539 -6.07,-2.539 -2.34,0 -4.34,0.832 -6.04,2.539 -1.67,1.679 -2.53,3.683 -2.53,6.047 0,2.355 0.86,4.414 2.53,6.093 1.7,1.688 3.7,2.547 6.04,2.547"
         style="fill:#ffffff;fill-opacity:1;fill-rule:nonzero;stroke:none"
         id="path80" /><path
         d="m 1666.7,425.66 h 10.45 v -81.133 h -10.45 z m 5.2,33.418 c 2.36,0 4.4,-0.859 6.07,-2.547 1.68,-1.679 2.54,-3.738 2.54,-6.093 0,-2.364 -0.86,-4.368 -2.54,-6.047 -1.67,-1.707 -3.71,-2.539 -6.07,-2.539 -2.34,0 -4.34,0.832 -6.04,2.539 -1.67,1.679 -2.53,3.683 -2.53,6.047 0,2.355 0.86,4.414 2.53,6.093 1.7,1.688 3.7,2.547 6.04,2.547 z"
         style="fill:none;stroke:#fff;stroke-width:10;stroke-linecap:butt;stroke-linejoin:miter;stroke-miterlimit:4;stroke-dasharray:none;stroke-opacity:1"
         id="path82" /><path
         d="m 1737.21,417.535 c -8.69,0 -16.14,-3.191 -22.36,-9.637 -6.24,-6.394 -9.36,-14.148 -9.36,-23.23 0,-5.891 1.41,-11.359 4.26,-16.418 2.85,-5.07 6.68,-8.996 11.52,-11.746 4.85,-2.777 10.17,-4.152 15.94,-4.152 5.79,0 11.12,1.375 15.95,4.152 4.84,2.75 8.67,6.676 11.52,11.746 2.84,5.059 4.27,10.527 4.27,16.418 0,9.082 -3.13,16.836 -9.4,23.23 -6.25,6.446 -13.71,9.637 -22.34,9.637 z m 0.05,10.219 c 12.51,0 22.86,-4.535 31.06,-13.566 7.49,-8.254 11.21,-18.028 11.21,-29.317 0,-11.34 -3.95,-21.25 -11.83,-29.719 -7.88,-8.484 -18.05,-12.722 -30.44,-12.722 -12.46,0 -22.62,4.238 -30.52,12.722 -7.92,8.469 -11.85,18.379 -11.85,29.719 0,11.238 3.75,20.977 11.2,29.219 8.23,9.121 18.62,13.664 31.17,13.664"
         style="fill:#ffffff;fill-opacity:1;fill-rule:nonzero;stroke:none"
         id="path84" /><path
         d="m 1737.21,417.535 c -8.69,0 -16.14,-3.191 -22.36,-9.637 -6.24,-6.394 -9.36,-14.148 -9.36,-23.23 0,-5.891 1.41,-11.359 4.26,-16.418 2.85,-5.07 6.68,-8.996 11.52,-11.746 4.85,-2.777 10.17,-4.152 15.94,-4.152 5.79,0 11.12,1.375 15.95,4.152 4.84,2.75 8.67,6.676 11.52,11.746 2.84,5.059 4.27,10.527 4.27,16.418 0,9.082 -3.13,16.836 -9.4,23.23 -6.25,6.446 -13.71,9.637 -22.34,9.637 z m 0.05,10.219 c 12.51,0 22.86,-4.535 31.06,-13.566 7.49,-8.254 11.21,-18.028 11.21,-29.317 0,-11.34 -3.95,-21.25 -11.83,-29.719 -7.88,-8.484 -18.05,-12.722 -30.44,-12.722 -12.46,0 -22.62,4.238 -30.52,12.722 -7.92,8.469 -11.85,18.379 -11.85,29.719 0,11.238 3.75,20.977 11.2,29.219 8.23,9.121 18.62,13.664 31.17,13.664 z"
         style="fill:none;stroke:#fff;stroke-width:10;stroke-linecap:butt;stroke-linejoin:miter;stroke-miterlimit:4;stroke-dasharray:none;stroke-opacity:1"
         id="path86" /><path
         d="m 1798.85,425.66 h 10.44 v -14.531 c 4.17,5.559 8.8,9.719 13.9,12.473 5.06,2.773 10.56,4.152 16.54,4.152 6.07,0 11.43,-1.535 16.14,-4.621 4.71,-3.086 8.18,-7.238 10.4,-12.442 2.24,-5.246 3.34,-13.351 3.34,-24.414 v -41.75 h -10.43 v 38.711 c 0,9.336 -0.4,15.578 -1.15,18.711 -1.21,5.364 -3.53,9.414 -6.95,12.11 -3.45,2.726 -7.92,4.066 -13.43,4.066 -6.33,0 -11.98,-2.074 -16.98,-6.262 -4.99,-4.172 -8.29,-9.347 -9.87,-15.519 -1.01,-4.024 -1.51,-11.383 -1.51,-22.071 v -29.746 h -10.44 v 81.133"
         style="fill:#ffffff;fill-opacity:1;fill-rule:nonzero;stroke:none"
         id="path88" /><path
         d="m 1798.85,425.66 h 10.44 v -14.531 c 4.17,5.559 8.8,9.719 13.9,12.473 5.06,2.773 10.56,4.152 16.54,4.152 6.07,0 11.43,-1.535 16.14,-4.621 4.71,-3.086 8.18,-7.238 10.4,-12.442 2.24,-5.246 3.34,-13.351 3.34,-24.414 v -41.75 h -10.43 v 38.711 c 0,9.336 -0.4,15.578 -1.15,18.711 -1.21,5.364 -3.53,9.414 -6.95,12.11 -3.45,2.726 -7.92,4.066 -13.43,4.066 -6.33,0 -11.98,-2.074 -16.98,-6.262 -4.99,-4.172 -8.29,-9.347 -9.87,-15.519 -1.01,-4.024 -1.51,-11.383 -1.51,-22.071 v -29.746 h -10.44 z"
         style="fill:none;stroke:#fff;stroke-width:10;stroke-linecap:butt;stroke-linejoin:miter;stroke-miterlimit:4;stroke-dasharray:none;stroke-opacity:1"
         id="path90" /><path
         d="m 1892,425.66 h 10.45 v -14.531 c 4.16,5.559 8.79,9.719 13.86,12.473 5.07,2.773 10.59,4.152 16.57,4.152 6.05,0 11.44,-1.535 16.14,-4.621 4.7,-3.086 8.16,-7.238 10.4,-12.442 2.25,-5.246 3.36,-13.351 3.36,-24.414 v -41.75 h -10.44 v 38.711 c 0,9.336 -0.39,15.578 -1.15,18.711 -1.23,5.364 -3.53,9.414 -6.99,12.11 -3.41,2.726 -7.9,4.066 -13.4,4.066 -6.32,0 -12,-2.074 -16.99,-6.262 -4.99,-4.172 -8.29,-9.347 -9.88,-15.519 -1.01,-4.024 -1.48,-11.383 -1.48,-22.071 V 344.527 H 1892 v 81.133"
         style="fill:#ffffff;fill-opacity:1;fill-rule:nonzero;stroke:none"
         id="path92" /><path
         d="m 1892,425.66 h 10.45 v -14.531 c 4.16,5.559 8.79,9.719 13.86,12.473 5.07,2.773 10.59,4.152 16.57,4.152 6.05,0 11.44,-1.535 16.14,-4.621 4.7,-3.086 8.16,-7.238 10.4,-12.442 2.25,-5.246 3.36,-13.351 3.36,-24.414 v -41.75 h -10.44 v 38.711 c 0,9.336 -0.39,15.578 -1.15,18.711 -1.23,5.364 -3.53,9.414 -6.99,12.11 -3.41,2.726 -7.9,4.066 -13.4,4.066 -6.32,0 -12,-2.074 -16.99,-6.262 -4.99,-4.172 -8.29,-9.347 -9.88,-15.519 -1.01,-4.024 -1.48,-11.383 -1.48,-22.071 V 344.527 H 1892 Z"
         style="fill:none;stroke:#fff;stroke-width:10;stroke-linecap:butt;stroke-linejoin:miter;stroke-miterlimit:4;stroke-dasharray:none;stroke-opacity:1"
         id="path94" /><path
         d="m 2053.45,393.309 c -1.39,5.554 -3.41,10.019 -6.08,13.339 -2.68,3.329 -6.19,6.016 -10.56,8.075 -4.4,2.011 -8.99,3.039 -13.82,3.039 -7.98,0 -14.81,-2.559 -20.53,-7.696 -4.18,-3.722 -7.35,-9.308 -9.5,-16.757 z m 0,-21.868 8.81,-4.617 c -2.88,-5.652 -6.22,-10.265 -10.02,-13.711 -3.78,-3.484 -8.02,-6.144 -12.75,-7.961 -4.72,-1.804 -10.07,-2.722 -16.06,-2.722 -13.23,0 -23.58,4.336 -31.04,13.008 -7.47,8.679 -11.2,18.496 -11.2,29.433 0,10.301 3.16,19.473 9.49,27.508 8.02,10.254 18.73,15.375 32.17,15.375 13.83,0 24.87,-5.254 33.13,-15.734 5.87,-7.415 8.87,-16.653 8.95,-27.735 h -73 c 0.21,-9.433 3.2,-17.156 9.02,-23.176 5.83,-6.054 13.03,-9.062 21.61,-9.062 4.12,0 8.13,0.734 12.03,2.18 3.91,1.433 7.24,3.339 9.98,5.695 2.74,2.391 5.7,6.238 8.88,11.519"
         style="fill:#ffffff;fill-opacity:1;fill-rule:nonzero;stroke:none"
         id="path96" /><path
         d="m 2053.45,393.309 c -1.39,5.554 -3.41,10.019 -6.08,13.339 -2.68,3.329 -6.19,6.016 -10.56,8.075 -4.4,2.011 -8.99,3.039 -13.82,3.039 -7.98,0 -14.81,-2.559 -20.53,-7.696 -4.18,-3.722 -7.35,-9.308 -9.5,-16.757 z m 0,-21.868 8.81,-4.617 c -2.88,-5.652 -6.22,-10.265 -10.02,-13.711 -3.78,-3.484 -8.02,-6.144 -12.75,-7.961 -4.72,-1.804 -10.07,-2.722 -16.06,-2.722 -13.23,0 -23.58,4.336 -31.04,13.008 -7.47,8.679 -11.2,18.496 -11.2,29.433 0,10.301 3.16,19.473 9.49,27.508 8.02,10.254 18.73,15.375 32.17,15.375 13.83,0 24.87,-5.254 33.13,-15.734 5.87,-7.415 8.87,-16.653 8.95,-27.735 h -73 c 0.21,-9.433 3.2,-17.156 9.02,-23.176 5.83,-6.054 13.03,-9.062 21.61,-9.062 4.12,0 8.13,0.734 12.03,2.18 3.91,1.433 7.24,3.339 9.98,5.695 2.74,2.391 5.7,6.238 8.88,11.519 z"
         style="fill:none;stroke:#fff;stroke-width:10;stroke-linecap:butt;stroke-linejoin:miter;stroke-miterlimit:4;stroke-dasharray:none;stroke-opacity:1"
         id="path98" /><path
         d="m 2082.85,456.988 h 10.43 V 344.527 h -10.43 v 112.461"
         style="fill:#ffffff;fill-opacity:1;fill-rule:nonzero;stroke:none"
         id="path100" /><path
         d="m 2082.85,456.988 h 10.43 V 344.527 h -10.43 z"
         style="fill:none;stroke:#fff;stroke-width:10;stroke-linecap:butt;stroke-linejoin:miter;stroke-miterlimit:4;stroke-dasharray:none;stroke-opacity:1"
         id="path102" /><path
         d="m 646.484,234.402 c -5.796,0 -11.175,-1.425 -16.086,-4.269 -4.906,-2.852 -8.832,-6.875 -11.726,-12.047 -2.895,-5.16 -4.356,-10.625 -4.356,-16.391 0,-5.711 1.461,-11.172 4.407,-16.375 2.91,-5.226 6.847,-9.297 11.804,-12.195 4.942,-2.914 10.227,-4.367 15.895,-4.367 5.695,0 11.113,1.453 16.238,4.336 5.098,2.879 9.059,6.797 11.813,11.699 2.754,4.91 4.117,10.449 4.117,16.609 0,9.387 -3.07,17.239 -9.266,23.536 -6.183,6.32 -13.801,9.464 -22.84,9.464 z m 41.731,39.297 V 161.238 h -10.289 v 13.965 c -4.371,-5.332 -9.278,-9.348 -14.727,-12.023 -5.445,-2.684 -11.398,-4.032 -17.851,-4.032 -11.496,0 -21.309,4.168 -29.446,12.489 -8.125,8.332 -12.175,18.457 -12.175,30.383 0,11.699 4.101,21.718 12.296,30.007 8.207,8.301 18.082,12.442 29.606,12.442 6.668,0 12.695,-1.422 18.094,-4.239 5.398,-2.832 10.129,-7.089 14.203,-12.761 v 46.23 h 10.289"
         style="fill:#ffffff;fill-opacity:1;fill-rule:nonzero;stroke:none"
         id="path104" /><path
         d="m 646.484,234.402 c -5.796,0 -11.175,-1.425 -16.086,-4.269 -4.906,-2.852 -8.832,-6.875 -11.726,-12.047 -2.895,-5.16 -4.356,-10.625 -4.356,-16.391 0,-5.711 1.461,-11.172 4.407,-16.375 2.91,-5.226 6.847,-9.297 11.804,-12.195 4.942,-2.914 10.227,-4.367 15.895,-4.367 5.695,0 11.113,1.453 16.238,4.336 5.098,2.879 9.059,6.797 11.813,11.699 2.754,4.91 4.117,10.449 4.117,16.609 0,9.387 -3.07,17.239 -9.266,23.536 -6.183,6.32 -13.801,9.464 -22.84,9.464 z m 41.731,39.297 V 161.238 h -10.289 v 13.965 c -4.371,-5.332 -9.278,-9.348 -14.727,-12.023 -5.445,-2.684 -11.398,-4.032 -17.851,-4.032 -11.496,0 -21.309,4.168 -29.446,12.489 -8.125,8.332 -12.175,18.457 -12.175,30.383 0,11.699 4.101,21.718 12.296,30.007 8.207,8.301 18.082,12.442 29.606,12.442 6.668,0 12.695,-1.422 18.094,-4.239 5.398,-2.832 10.129,-7.089 14.203,-12.761 v 46.23 z"
         style="fill:none;stroke:#fff;stroke-width:10;stroke-linecap:butt;stroke-linejoin:miter;stroke-miterlimit:4;stroke-dasharray:none;stroke-opacity:1"
         id="path106" /><path
         d="m 710.52,242.379 h 10.441 V 204.5 c 0,-9.258 0.492,-15.605 1.488,-19.094 1.504,-4.968 4.36,-8.894 8.551,-11.785 4.211,-2.883 9.23,-4.324 15.055,-4.324 5.824,0 10.765,1.402 14.812,4.207 4.074,2.82 6.871,6.512 8.426,11.082 1.043,3.137 1.551,9.766 1.551,19.914 v 37.879 h 10.672 v -39.824 c 0,-11.192 -1.301,-19.61 -3.914,-25.282 -2.614,-5.656 -6.539,-10.097 -11.789,-13.293 -5.227,-3.203 -11.813,-4.832 -19.727,-4.832 -7.918,0 -14.5,1.629 -19.785,4.832 -5.289,3.196 -9.246,7.657 -11.871,13.418 -2.598,5.735 -3.91,14.375 -3.91,25.899 v 39.082"
         style="fill:#ffffff;fill-opacity:1;fill-rule:nonzero;stroke:none"
         id="path108" /><path
         d="m 710.52,242.379 h 10.441 V 204.5 c 0,-9.258 0.492,-15.605 1.488,-19.094 1.504,-4.968 4.36,-8.894 8.551,-11.785 4.211,-2.883 9.23,-4.324 15.055,-4.324 5.824,0 10.765,1.402 14.812,4.207 4.074,2.82 6.871,6.512 8.426,11.082 1.043,3.137 1.551,9.766 1.551,19.914 v 37.879 h 10.672 v -39.824 c 0,-11.192 -1.301,-19.61 -3.914,-25.282 -2.614,-5.656 -6.539,-10.097 -11.789,-13.293 -5.227,-3.203 -11.813,-4.832 -19.727,-4.832 -7.918,0 -14.5,1.629 -19.785,4.832 -5.289,3.196 -9.246,7.657 -11.871,13.418 -2.598,5.735 -3.91,14.375 -3.91,25.899 z"
         style="fill:none;stroke:#fff;stroke-width:10;stroke-linecap:butt;stroke-linejoin:miter;stroke-miterlimit:4;stroke-dasharray:none;stroke-opacity:1"
         id="path110" /><path
         d="m 848.789,161.238 v 109.707 h 2.379 l 73.008,-84.093 v 84.093 h 10.808 V 161.238 h -2.457 l -72.398,83.098 v -83.098 h -11.34"
         style="fill:#ffffff;fill-opacity:1;fill-rule:nonzero;stroke:none"
         id="path112" /><path
         d="m 848.789,161.238 v 109.707 h 2.379 l 73.008,-84.093 v 84.093 h 10.808 V 161.238 h -2.457 l -72.398,83.098 v -83.098 z"
         style="fill:none;stroke:#fff;stroke-width:10;stroke-linecap:butt;stroke-linejoin:miter;stroke-miterlimit:4;stroke-dasharray:none;stroke-opacity:1"
         id="path114" /><path
         d="m 998.336,234.246 c -8.672,0 -16.129,-3.195 -22.367,-9.617 -6.239,-6.399 -9.36,-14.164 -9.36,-23.266 0,-5.867 1.414,-11.328 4.258,-16.394 2.856,-5.071 6.688,-8.996 11.531,-11.758 4.844,-2.746 10.145,-4.133 15.938,-4.133 5.784,0 11.094,1.387 15.944,4.133 4.84,2.762 8.67,6.687 11.52,11.758 2.85,5.066 4.27,10.527 4.27,16.394 0,9.102 -3.13,16.867 -9.38,23.266 -6.27,6.422 -13.71,9.617 -22.354,9.617 z m 0.047,10.223 c 12.507,0 22.857,-4.52 31.057,-13.563 7.47,-8.242 11.21,-18.027 11.21,-29.316 0,-11.336 -3.94,-21.262 -11.83,-29.715 -7.9,-8.48 -18.02,-12.727 -30.437,-12.727 -12.442,0 -22.637,4.247 -30.524,12.727 -7.879,8.453 -11.839,18.379 -11.839,29.715 0,11.238 3.742,20.976 11.21,29.238 8.2,9.102 18.614,13.641 31.153,13.641"
         style="fill:#ffffff;fill-opacity:1;fill-rule:nonzero;stroke:none"
         id="path116" /><path
         d="m 998.336,234.246 c -8.672,0 -16.129,-3.195 -22.367,-9.617 -6.239,-6.399 -9.36,-14.164 -9.36,-23.266 0,-5.867 1.414,-11.328 4.258,-16.394 2.856,-5.071 6.688,-8.996 11.531,-11.758 4.844,-2.746 10.145,-4.133 15.938,-4.133 5.784,0 11.094,1.387 15.944,4.133 4.84,2.762 8.67,6.687 11.52,11.758 2.85,5.066 4.27,10.527 4.27,16.394 0,9.102 -3.13,16.867 -9.38,23.266 -6.27,6.422 -13.71,9.617 -22.354,9.617 z m 0.047,10.223 c 12.507,0 22.857,-4.52 31.057,-13.563 7.47,-8.242 11.21,-18.027 11.21,-29.316 0,-11.336 -3.94,-21.262 -11.83,-29.715 -7.9,-8.48 -18.02,-12.727 -30.437,-12.727 -12.442,0 -22.637,4.247 -30.524,12.727 -7.879,8.453 -11.839,18.379 -11.839,29.715 0,11.238 3.742,20.976 11.21,29.238 8.2,9.102 18.614,13.641 31.153,13.641 z"
         style="fill:none;stroke:#fff;stroke-width:10;stroke-linecap:butt;stroke-linejoin:miter;stroke-miterlimit:4;stroke-dasharray:none;stroke-opacity:1"
         id="path118" /><path
         d="m 1056.04,242.379 h 10.65 v -11.856 c 3.18,4.668 6.54,8.176 10.06,10.481 3.52,2.293 7.21,3.465 11.04,3.465 2.88,0 5.96,-0.918 9.25,-2.754 l -5.45,-8.797 c -2.18,0.945 -4.02,1.406 -5.52,1.406 -3.47,0 -6.83,-1.426 -10.06,-4.289 -3.22,-2.851 -5.69,-7.293 -7.37,-13.308 -1.3,-4.629 -1.95,-13.985 -1.95,-28.039 v -27.45 h -10.65 v 81.141"
         style="fill:#ffffff;fill-opacity:1;fill-rule:nonzero;stroke:none"
         id="path120" /><path
         d="m 1056.04,242.379 h 10.65 v -11.856 c 3.18,4.668 6.54,8.176 10.06,10.481 3.52,2.293 7.21,3.465 11.04,3.465 2.88,0 5.96,-0.918 9.25,-2.754 l -5.45,-8.797 c -2.18,0.945 -4.02,1.406 -5.52,1.406 -3.47,0 -6.83,-1.426 -10.06,-4.289 -3.22,-2.851 -5.69,-7.293 -7.37,-13.308 -1.3,-4.629 -1.95,-13.985 -1.95,-28.039 v -27.45 h -10.65 z"
         style="fill:none;stroke:#fff;stroke-width:10;stroke-linecap:butt;stroke-linejoin:miter;stroke-miterlimit:4;stroke-dasharray:none;stroke-opacity:1"
         id="path122" /><path
         d="m 1144.27,234.402 c -5.79,0 -11.17,-1.425 -16.08,-4.269 -4.9,-2.852 -8.83,-6.875 -11.73,-12.047 -2.9,-5.16 -4.36,-10.625 -4.36,-16.391 0,-5.711 1.46,-11.172 4.41,-16.375 2.91,-5.226 6.83,-9.297 11.79,-12.195 4.96,-2.914 10.24,-4.367 15.9,-4.367 5.71,0 11.12,1.453 16.25,4.336 5.1,2.879 9.04,6.797 11.81,11.699 2.75,4.91 4.11,10.449 4.11,16.609 0,9.387 -3.06,17.239 -9.26,23.536 -6.19,6.32 -13.78,9.464 -22.84,9.464 z M 1186,273.699 V 161.238 h -10.29 v 13.965 c -4.37,-5.332 -9.28,-9.348 -14.72,-12.023 -5.45,-2.684 -11.4,-4.032 -17.86,-4.032 -11.49,0 -21.31,4.168 -29.42,12.489 -8.13,8.332 -12.19,18.457 -12.19,30.383 0,11.699 4.1,21.718 12.29,30.007 8.21,8.301 18.08,12.442 29.6,12.442 6.68,0 12.7,-1.422 18.1,-4.239 5.4,-2.832 10.12,-7.089 14.2,-12.761 v 46.23 H 1186"
         style="fill:#ffffff;fill-opacity:1;fill-rule:nonzero;stroke:none"
         id="path124" /><path
         d="m 1144.27,234.402 c -5.79,0 -11.17,-1.425 -16.08,-4.269 -4.9,-2.852 -8.83,-6.875 -11.73,-12.047 -2.9,-5.16 -4.36,-10.625 -4.36,-16.391 0,-5.711 1.46,-11.172 4.41,-16.375 2.91,-5.226 6.83,-9.297 11.79,-12.195 4.96,-2.914 10.24,-4.367 15.9,-4.367 5.71,0 11.12,1.453 16.25,4.336 5.1,2.879 9.04,6.797 11.81,11.699 2.75,4.91 4.11,10.449 4.11,16.609 0,9.387 -3.06,17.239 -9.26,23.536 -6.19,6.32 -13.78,9.464 -22.84,9.464 z M 1186,273.699 V 161.238 h -10.29 v 13.965 c -4.37,-5.332 -9.28,-9.348 -14.72,-12.023 -5.45,-2.684 -11.4,-4.032 -17.86,-4.032 -11.49,0 -21.31,4.168 -29.42,12.489 -8.13,8.332 -12.19,18.457 -12.19,30.383 0,11.699 4.1,21.718 12.29,30.007 8.21,8.301 18.08,12.442 29.6,12.442 6.68,0 12.7,-1.422 18.1,-4.239 5.4,-2.832 10.12,-7.089 14.2,-12.761 v 46.23 z"
         style="fill:none;stroke:#fff;stroke-width:10;stroke-linecap:butt;stroke-linejoin:miter;stroke-miterlimit:4;stroke-dasharray:none;stroke-opacity:1"
         id="path126" /><path
         d="m 1244.25,242.379 h 11.12 l 27.22,-59.149 26.92,59.149 h 11.17 l -37.12,-81.141 h -1.94 l -37.37,81.141"
         style="fill:#ffffff;fill-opacity:1;fill-rule:nonzero;stroke:none"
         id="path128" /><path
         d="m 1244.25,242.379 h 11.12 l 27.22,-59.149 26.92,59.149 h 11.17 l -37.12,-81.141 h -1.94 z"
         style="fill:none;stroke:#fff;stroke-width:10;stroke-linecap:butt;stroke-linejoin:miter;stroke-miterlimit:4;stroke-dasharray:none;stroke-opacity:1"
         id="path130" /><path
         d="m 1375.69,234.402 c -5.81,0 -11.16,-1.425 -16.09,-4.269 -4.92,-2.852 -8.82,-6.875 -11.72,-12.047 -2.91,-5.16 -4.37,-10.625 -4.37,-16.391 0,-5.711 1.46,-11.172 4.4,-16.375 2.92,-5.226 6.87,-9.297 11.81,-12.195 4.93,-2.914 10.24,-4.367 15.89,-4.367 5.71,0 11.13,1.453 16.24,4.336 5.13,2.879 9.05,6.797 11.81,11.699 2.75,4.91 4.15,10.449 4.15,16.609 0,9.387 -3.11,17.239 -9.29,23.536 -6.19,6.32 -13.79,9.464 -22.83,9.464 z m 41.75,7.977 v -81.141 h -10.3 v 13.965 c -4.38,-5.332 -9.3,-9.348 -14.75,-12.023 -5.43,-2.684 -11.4,-4.032 -17.85,-4.032 -11.5,0 -21.29,4.168 -29.42,12.489 -8.13,8.332 -12.19,18.457 -12.19,30.383 0,11.699 4.09,21.718 12.3,30.007 8.2,8.301 18.09,12.442 29.61,12.442 6.66,0 12.69,-1.422 18.08,-4.239 5.4,-2.832 10.14,-7.089 14.22,-12.761 v 14.91 h 10.3"
         style="fill:#ffffff;fill-opacity:1;fill-rule:nonzero;stroke:none"
         id="path132" /><path
         d="m 1375.69,234.402 c -5.81,0 -11.16,-1.425 -16.09,-4.269 -4.92,-2.852 -8.82,-6.875 -11.72,-12.047 -2.91,-5.16 -4.37,-10.625 -4.37,-16.391 0,-5.711 1.46,-11.172 4.4,-16.375 2.92,-5.226 6.87,-9.297 11.81,-12.195 4.93,-2.914 10.24,-4.367 15.89,-4.367 5.71,0 11.13,1.453 16.24,4.336 5.13,2.879 9.05,6.797 11.81,11.699 2.75,4.91 4.15,10.449 4.15,16.609 0,9.387 -3.11,17.239 -9.29,23.536 -6.19,6.32 -13.79,9.464 -22.83,9.464 z m 41.75,7.977 v -81.141 h -10.3 v 13.965 c -4.38,-5.332 -9.3,-9.348 -14.75,-12.023 -5.43,-2.684 -11.4,-4.032 -17.85,-4.032 -11.5,0 -21.29,4.168 -29.42,12.489 -8.13,8.332 -12.19,18.457 -12.19,30.383 0,11.699 4.09,21.718 12.3,30.007 8.2,8.301 18.09,12.442 29.61,12.442 6.66,0 12.69,-1.422 18.08,-4.239 5.4,-2.832 10.14,-7.089 14.22,-12.761 v 14.91 z"
         style="fill:none;stroke:#fff;stroke-width:10;stroke-linecap:butt;stroke-linejoin:miter;stroke-miterlimit:4;stroke-dasharray:none;stroke-opacity:1"
         id="path134" /><path
         d="m 1439.57,242.379 h 10.44 V 204.5 c 0,-9.258 0.49,-15.605 1.49,-19.094 1.48,-4.968 4.33,-8.894 8.54,-11.785 4.22,-2.883 9.23,-4.324 15.06,-4.324 5.82,0 10.75,1.402 14.84,4.207 4.05,2.82 6.83,6.512 8.39,11.082 1.04,3.137 1.56,9.766 1.56,19.914 v 37.879 h 10.67 v -39.824 c 0,-11.192 -1.32,-19.61 -3.9,-25.282 -2.62,-5.656 -6.55,-10.097 -11.78,-13.293 -5.27,-3.203 -11.85,-4.832 -19.75,-4.832 -7.9,0 -14.5,1.629 -19.8,4.832 -5.29,3.196 -9.24,7.657 -11.84,13.418 -2.63,5.735 -3.92,14.375 -3.92,25.899 v 39.082"
         style="fill:#ffffff;fill-opacity:1;fill-rule:nonzero;stroke:none"
         id="path136" /><path
         d="m 1439.57,242.379 h 10.44 V 204.5 c 0,-9.258 0.49,-15.605 1.49,-19.094 1.48,-4.968 4.33,-8.894 8.54,-11.785 4.22,-2.883 9.23,-4.324 15.06,-4.324 5.82,0 10.75,1.402 14.84,4.207 4.05,2.82 6.83,6.512 8.39,11.082 1.04,3.137 1.56,9.766 1.56,19.914 v 37.879 h 10.67 v -39.824 c 0,-11.192 -1.32,-19.61 -3.9,-25.282 -2.62,-5.656 -6.55,-10.097 -11.78,-13.293 -5.27,-3.203 -11.85,-4.832 -19.75,-4.832 -7.9,0 -14.5,1.629 -19.8,4.832 -5.29,3.196 -9.24,7.657 -11.84,13.418 -2.63,5.735 -3.92,14.375 -3.92,25.899 z"
         style="fill:none;stroke:#fff;stroke-width:10;stroke-linecap:butt;stroke-linejoin:miter;stroke-miterlimit:4;stroke-dasharray:none;stroke-opacity:1"
         id="path138" /><path
         d="m 1573.01,234.402 c -5.8,0 -11.18,-1.425 -16.08,-4.269 -4.91,-2.852 -8.84,-6.875 -11.75,-12.047 -2.9,-5.16 -4.34,-10.625 -4.34,-16.391 0,-5.711 1.46,-11.172 4.41,-16.375 2.91,-5.226 6.83,-9.297 11.79,-12.195 4.96,-2.914 10.24,-4.367 15.9,-4.367 5.71,0 11.12,1.453 16.24,4.336 5.1,2.879 9.03,6.797 11.8,11.699 2.77,4.91 4.13,10.449 4.13,16.609 0,9.387 -3.08,17.239 -9.26,23.536 -6.19,6.32 -13.78,9.464 -22.84,9.464 z m 41.73,39.297 V 161.238 h -10.29 v 13.965 c -4.37,-5.332 -9.3,-9.348 -14.73,-12.023 -5.44,-2.684 -11.39,-4.032 -17.85,-4.032 -11.49,0 -21.31,4.168 -29.42,12.489 -8.13,8.332 -12.21,18.457 -12.21,30.383 0,11.699 4.11,21.718 12.31,30.007 8.21,8.301 18.08,12.442 29.6,12.442 6.65,0 12.7,-1.422 18.08,-4.239 5.42,-2.832 10.14,-7.089 14.22,-12.761 v 46.23 h 10.29"
         style="fill:#ffffff;fill-opacity:1;fill-rule:nonzero;stroke:none"
         id="path140" /><path
         d="m 1573.01,234.402 c -5.8,0 -11.18,-1.425 -16.08,-4.269 -4.91,-2.852 -8.84,-6.875 -11.75,-12.047 -2.9,-5.16 -4.34,-10.625 -4.34,-16.391 0,-5.711 1.46,-11.172 4.41,-16.375 2.91,-5.226 6.83,-9.297 11.79,-12.195 4.96,-2.914 10.24,-4.367 15.9,-4.367 5.71,0 11.12,1.453 16.24,4.336 5.1,2.879 9.03,6.797 11.8,11.699 2.77,4.91 4.13,10.449 4.13,16.609 0,9.387 -3.08,17.239 -9.26,23.536 -6.19,6.32 -13.78,9.464 -22.84,9.464 z m 41.73,39.297 V 161.238 h -10.29 v 13.965 c -4.37,-5.332 -9.3,-9.348 -14.73,-12.023 -5.44,-2.684 -11.39,-4.032 -17.85,-4.032 -11.49,0 -21.31,4.168 -29.42,12.489 -8.13,8.332 -12.21,18.457 -12.21,30.383 0,11.699 4.11,21.718 12.31,30.007 8.21,8.301 18.08,12.442 29.6,12.442 6.65,0 12.7,-1.422 18.08,-4.239 5.42,-2.832 10.14,-7.089 14.22,-12.761 v 46.23 z"
         style="fill:none;stroke:#fff;stroke-width:10;stroke-linecap:butt;stroke-linejoin:miter;stroke-miterlimit:4;stroke-dasharray:none;stroke-opacity:1"
         id="path142" /><path
         d="m 1676.85,234.246 c -8.67,0 -16.12,-3.195 -22.39,-9.617 -6.26,-6.399 -9.4,-14.164 -9.4,-23.266 0,-5.867 1.43,-11.328 4.28,-16.394 2.85,-5.071 6.75,-8.996 11.57,-11.758 4.85,-2.746 10.15,-4.133 15.94,-4.133 5.8,0 11.1,1.387 15.93,4.133 4.86,2.762 8.67,6.687 11.51,11.758 2.88,5.066 4.29,10.527 4.29,16.394 0,9.102 -3.13,16.867 -9.41,23.266 -6.24,6.422 -13.69,9.617 -22.32,9.617 z m 0.04,10.223 c 12.49,0 22.85,-4.52 31.07,-13.563 7.46,-8.242 11.2,-18.027 11.2,-29.316 0,-11.336 -3.93,-21.262 -11.82,-29.715 -7.88,-8.48 -18.06,-12.727 -30.45,-12.727 -12.44,0 -22.63,4.247 -30.59,12.727 -7.92,8.453 -11.87,18.379 -11.87,29.715 0,11.238 3.75,20.976 11.27,29.238 8.23,9.102 18.65,13.641 31.19,13.641"
         style="fill:#ffffff;fill-opacity:1;fill-rule:nonzero;stroke:none"
         id="path144" /><path
         d="m 1676.85,234.246 c -8.67,0 -16.12,-3.195 -22.39,-9.617 -6.26,-6.399 -9.4,-14.164 -9.4,-23.266 0,-5.867 1.43,-11.328 4.28,-16.394 2.85,-5.071 6.75,-8.996 11.57,-11.758 4.85,-2.746 10.15,-4.133 15.94,-4.133 5.8,0 11.1,1.387 15.93,4.133 4.86,2.762 8.67,6.687 11.51,11.758 2.88,5.066 4.29,10.527 4.29,16.394 0,9.102 -3.13,16.867 -9.41,23.266 -6.24,6.422 -13.69,9.617 -22.32,9.617 z m 0.04,10.223 c 12.49,0 22.85,-4.52 31.07,-13.563 7.46,-8.242 11.2,-18.027 11.2,-29.316 0,-11.336 -3.93,-21.262 -11.82,-29.715 -7.88,-8.48 -18.06,-12.727 -30.45,-12.727 -12.44,0 -22.63,4.247 -30.59,12.727 -7.92,8.453 -11.87,18.379 -11.87,29.715 0,11.238 3.75,20.976 11.27,29.238 8.23,9.102 18.65,13.641 31.19,13.641 z"
         style="fill:none;stroke:#fff;stroke-width:10;stroke-linecap:butt;stroke-linejoin:miter;stroke-miterlimit:4;stroke-dasharray:none;stroke-opacity:1"
         id="path146" /><path
         d="m 1736.91,242.379 h 10.44 v -81.141 h -10.44 z m 5.19,33.418 c 2.37,0 4.41,-0.836 6.09,-2.527 1.67,-1.7 2.53,-3.743 2.53,-6.125 0,-2.344 -0.86,-4.344 -2.53,-6.036 -1.68,-1.707 -3.72,-2.546 -6.09,-2.546 -2.34,0 -4.33,0.839 -6.01,2.546 -1.68,1.692 -2.53,3.692 -2.53,6.036 0,2.382 0.85,4.425 2.53,6.125 1.68,1.691 3.67,2.527 6.01,2.527"
         style="fill:#ffffff;fill-opacity:1;fill-rule:nonzero;stroke:none"
         id="path148" /><path
         d="m 1736.91,242.379 h 10.44 v -81.141 h -10.44 z m 5.19,33.418 c 2.37,0 4.41,-0.836 6.09,-2.527 1.67,-1.7 2.53,-3.743 2.53,-6.125 0,-2.344 -0.86,-4.344 -2.53,-6.036 -1.68,-1.707 -3.72,-2.546 -6.09,-2.546 -2.34,0 -4.33,0.839 -6.01,2.546 -1.68,1.692 -2.53,3.692 -2.53,6.036 0,2.382 0.85,4.425 2.53,6.125 1.68,1.691 3.67,2.527 6.01,2.527 z"
         style="fill:none;stroke:#fff;stroke-width:10;stroke-linecap:butt;stroke-linejoin:miter;stroke-miterlimit:4;stroke-dasharray:none;stroke-opacity:1"
         id="path150" /><path
         d="m 1809.84,233.504 -6.69,-6.914 c -5.61,5.41 -11.04,8.094 -16.38,8.094 -3.38,0 -6.3,-1.102 -8.72,-3.348 -2.42,-2.238 -3.62,-4.844 -3.62,-7.824 0,-2.645 0.99,-5.145 2.99,-7.539 2,-2.422 6.18,-5.282 12.56,-8.551 7.78,-4.027 13.05,-7.922 15.85,-11.645 2.73,-3.777 4.11,-8.035 4.11,-12.754 0,-6.668 -2.35,-12.304 -7.03,-16.921 -4.67,-4.629 -10.53,-6.954 -17.55,-6.954 -4.69,0 -9.15,1.016 -13.4,3.075 -4.26,2.023 -7.79,4.824 -10.59,8.402 l 6.57,7.477 c 5.35,-6.016 11,-9.024 16.97,-9.024 4.2,0 7.74,1.34 10.7,4.016 2.95,2.695 4.41,5.84 4.41,9.472 0,2.989 -0.99,5.664 -2.93,7.989 -1.92,2.285 -6.32,5.175 -13.15,8.64 -7.32,3.801 -12.29,7.512 -14.94,11.184 -2.63,3.68 -3.98,7.898 -3.98,12.625 0,6.144 2.12,11.269 6.32,15.363 4.21,4.082 9.53,6.102 15.96,6.102 7.47,0 14.99,-3.653 22.54,-10.965"
         style="fill:#ffffff;fill-opacity:1;fill-rule:nonzero;stroke:none"
         id="path152" /><path
         d="m 1809.84,233.504 -6.69,-6.914 c -5.61,5.41 -11.04,8.094 -16.38,8.094 -3.38,0 -6.3,-1.102 -8.72,-3.348 -2.42,-2.238 -3.62,-4.844 -3.62,-7.824 0,-2.645 0.99,-5.145 2.99,-7.539 2,-2.422 6.18,-5.282 12.56,-8.551 7.78,-4.027 13.05,-7.922 15.85,-11.645 2.73,-3.777 4.11,-8.035 4.11,-12.754 0,-6.668 -2.35,-12.304 -7.03,-16.921 -4.67,-4.629 -10.53,-6.954 -17.55,-6.954 -4.69,0 -9.15,1.016 -13.4,3.075 -4.26,2.023 -7.79,4.824 -10.59,8.402 l 6.57,7.477 c 5.35,-6.016 11,-9.024 16.97,-9.024 4.2,0 7.74,1.34 10.7,4.016 2.95,2.695 4.41,5.84 4.41,9.472 0,2.989 -0.99,5.664 -2.93,7.989 -1.92,2.285 -6.32,5.175 -13.15,8.64 -7.32,3.801 -12.29,7.512 -14.94,11.184 -2.63,3.68 -3.98,7.898 -3.98,12.625 0,6.144 2.12,11.269 6.32,15.363 4.21,4.082 9.53,6.102 15.96,6.102 7.47,0 14.99,-3.653 22.54,-10.965 z"
         style="fill:none;stroke:#fff;stroke-width:10;stroke-linecap:butt;stroke-linejoin:miter;stroke-miterlimit:4;stroke-dasharray:none;stroke-opacity:1"
         id="path154" /></g></g></svg>
