<svg xmlns="http://www.w3.org/2000/svg" viewBox="0 0 1029.32 403.4"><defs><style>.cls-1{fill:#fff;}</style></defs><g id="Calque_2" data-name="Calque 2"><g id="Calque_1-2" data-name="Calque 1"><path class="cls-1" d="M396.64,305.57H302.88v28.7h65.06l.07,1.5c-8.76,25-28.85,39.38-60.54,39.38-36.62,0-64.23-29.34-64.23-66.46,0-38.59,28.75-69.05,66.87-69.05,29.22,0,50,14.34,61.85,40l26.89-12.4c-16.62-36-48.13-55.81-88.74-55.81-54.1,0-96.47,42.74-96.47,97.3,0,53.11,41.21,94.71,93.83,94.71,27.46,0,48.19-11.08,63.17-28.37l2.7,21.61h23.3V308.29l.15-.89h-.15Z"/><polygon class="cls-1" points="396.64 150.29 248.36 150.29 248.36 102.96 379.56 102.96 379.56 75.52 248.36 75.52 248.36 28.2 396.64 28.2 396.64 0 218.15 0 218.15 178.49 396.64 178.49 396.64 150.29"/><polygon class="cls-1" points="148.03 73.76 30.21 73.76 30.21 0 0 0 0 178.49 30.21 178.49 30.21 102.21 148.03 102.21 148.03 178.49 178.49 178.49 178.49 0 148.03 0 148.03 73.76"/><polygon class="cls-1" points="104.35 368.19 104.35 246.6 178.49 246.6 178.49 218.15 0 218.15 0 246.6 74.14 246.6 74.14 368.19 0 368.19 0 396.64 178.49 396.64 178.49 368.19 104.35 368.19"/><path class="cls-1" d="M473.29,0h12.09L466.74,51H455L436.3,0h12.53l12.3,35.9Z"/><path class="cls-1" d="M494.79,51V0h18.49c15.33,0,25.61,9.79,25.61,25.55S528.61,51,513.21,51Zm18-10.72c7.85,0,14.26-4.54,14.26-14.75s-6.41-14.83-14.26-14.83h-6.61V40.3Z"/><rect class="cls-1" x="612.8" width="3.98" height="396.64"/><path class="cls-1" d="M701.18,51.13V17.3L687.86,51.13h-9.21L665.33,17.74V51.13h-10.8V.1h14.83l14,34.48L696.71.1h15.62v51Z"/><path class="cls-1" d="M723.85,51.13V.1h32.32V10.83H735.22v9.71h19v10h-19v9.79h21V51.13Z"/><path class="cls-1" d="M765.67,51.13V.1h11.51v51Z"/><path class="cls-1" d="M703.77,223.91V184.18l-17.42,39.73h-6.48L662.6,184.18v39.73h-7v-51h9.58l18,41.53,18.14-41.53h9.43v51Z"/><path class="cls-1" d="M752.93,214.05C751,220.17,745.44,225,737.38,225c-9.28,0-17.42-6.76-17.42-18.5,0-10.86,7.85-18.28,16.56-18.28,10.65,0,16.63,7.34,16.63,18.14a15.37,15.37,0,0,1-.15,2.16H727c.14,6.19,4.6,10.51,10.43,10.51,5.62,0,8.42-3.1,9.72-7Zm-6.84-11c-.14-5-3.38-8.85-9.5-8.85a9.31,9.31,0,0,0-9.43,8.85Z"/><path class="cls-1" d="M786.54,218.66a11.58,11.58,0,0,1-10.72,6.19c-10.15,0-16.41-8.06-16.41-18.36,0-9.78,6.62-18.13,16.41-18.13,6.12,0,9.43,3,10.58,5.83V171.8h6.69v45.71a55,55,0,0,0,.36,6.4H786.9a29.44,29.44,0,0,1-.36-4.68Zm-10.07.21c6.19,0,10-5.39,10-12.52s-3.74-12-9.93-12-10.22,5-10.22,12.16S770,218.87,776.47,218.87Z"/><path class="cls-1" d="M807.42,171.3a4.86,4.86,0,1,1-4.83,4.89A4.85,4.85,0,0,1,807.42,171.3Zm-3.32,52.61V189.29h6.7v34.62Z"/><path class="cls-1" d="M829.94,204.12l9.36-1.37c2.09-.29,2.66-1.37,2.66-2.59,0-3.38-2.23-6.19-7.48-6.19-4.75,0-7.41,2.95-7.85,7l-6.47-1.51c.72-6.62,6.69-11.23,14.17-11.23,10.37,0,14.4,5.9,14.4,12.67v17.35a33,33,0,0,0,.43,5.68h-6.62a25.67,25.67,0,0,1-.36-4.68c-1.51,2.45-5,5.76-11.16,5.76-7,0-11.58-4.89-11.58-10.36C819.44,208.44,824,205,829.94,204.12Zm12,5V207.5l-10.58,1.59c-2.88.43-5,2.08-5,5.18,0,2.59,2.15,5,5.61,5C837.5,219.31,842,216.64,842,209.09Z"/><path class="cls-1" d="M655.61,310.3v-51h31v6.55h-24v15.69h21.74v6.62H662.67v15.62h24v6.55Z"/><path class="cls-1" d="M702.26,310.3h-6.77V275.68h6.62v5a11.86,11.86,0,0,1,10.65-6c8.28,0,12.39,6,12.39,13.68V310.3h-6.77V289.5c0-4.82-2-8.71-8.06-8.71-5.33,0-8.06,4.25-8.06,9.5Z"/><path class="cls-1" d="M740,310.66a9.21,9.21,0,0,0,9.43,8.5c7.27,0,10.58-3.75,10.58-11.23v-5c-1.65,3.17-5.4,5.69-10.58,5.69-9.21,0-15.91-7-15.91-16.77,0-9.36,6.41-16.85,15.91-16.85,5.33,0,8.93,2,10.65,5.47v-4.82h6.7v32c0,8.78-4.32,17.35-17.35,17.35-8.64,0-15.11-5.47-16-12.89Zm20.3-18.78c0-6.7-4-11.09-9.86-11.09s-10,4.39-10,11.09,3.89,11.08,10,11.08C756.24,303,760.27,298.57,760.27,291.88Z"/><path class="cls-1" d="M781,257.69a4.86,4.86,0,1,1-4.82,4.89A4.85,4.85,0,0,1,781,257.69Zm-3.31,52.61V275.68h6.69V310.3Z"/><path class="cls-1" d="M802.09,310.3h-6.77V275.68h6.62v5a11.87,11.87,0,0,1,10.66-6c8.27,0,12.38,6,12.38,13.68V310.3h-6.77V289.5c0-4.82-2-8.71-8.06-8.71-5.33,0-8.06,4.25-8.06,9.5Z"/><path class="cls-1" d="M866.22,300.44c-1.94,6.12-7.49,10.94-15.55,10.94-9.28,0-17.42-6.76-17.42-18.5,0-10.86,7.85-18.28,16.56-18.28,10.65,0,16.62,7.34,16.62,18.14a15.66,15.66,0,0,1-.14,2.16h-26c.14,6.19,4.6,10.51,10.43,10.51,5.62,0,8.42-3.1,9.72-7Zm-6.84-11c-.14-5-3.38-8.85-9.5-8.85a9.31,9.31,0,0,0-9.43,8.85Z"/><path class="cls-1" d="M905.59,300.44c-1.94,6.12-7.49,10.94-15.55,10.94-9.28,0-17.42-6.76-17.42-18.5,0-10.86,7.85-18.28,16.56-18.28,10.65,0,16.63,7.34,16.63,18.14a15.37,15.37,0,0,1-.15,2.16h-26c.14,6.19,4.6,10.51,10.43,10.51,5.62,0,8.42-3.1,9.72-7Zm-6.84-11c-.14-5-3.38-8.85-9.5-8.85a9.31,9.31,0,0,0-9.43,8.85Z"/><path class="cls-1" d="M933.52,282.52a21.84,21.84,0,0,0-2.95-.22c-5.69,0-9.5,3-9.5,10.66V310.3H914.3V275.68h6.62v6.05a10.84,10.84,0,0,1,10.37-6.62,13.13,13.13,0,0,1,2.23.21Z"/><path class="cls-1" d="M943.74,257.69a4.86,4.86,0,1,1-4.82,4.89A4.85,4.85,0,0,1,943.74,257.69Zm-3.31,52.61V275.68h6.69V310.3Z"/><path class="cls-1" d="M964.83,310.3h-6.77V275.68h6.62v5a11.86,11.86,0,0,1,10.66-6c8.27,0,12.38,6,12.38,13.68V310.3H981V289.5c0-4.82-2-8.71-8.06-8.71-5.33,0-8.06,4.25-8.06,9.5Z"/><path class="cls-1" d="M1002.54,310.66a9.21,9.21,0,0,0,9.43,8.5c7.27,0,10.58-3.75,10.58-11.23v-5c-1.65,3.17-5.4,5.69-10.58,5.69-9.21,0-15.91-7-15.91-16.77,0-9.36,6.41-16.85,15.91-16.85,5.33,0,8.93,2,10.65,5.47v-4.82h6.7v32c0,8.78-4.32,17.35-17.35,17.35-8.64,0-15.11-5.47-16-12.89Zm20.3-18.78c0-6.7-4-11.09-9.86-11.09-6,0-10,4.39-10,11.09s3.89,11.08,10,11.08C1018.81,303,1022.84,298.57,1022.84,291.88Z"/><path class="cls-1" d="M655.61,396.69v-51h7.2v51Z"/><path class="cls-1" d="M681.89,396.69h-6.77V362.07h6.62v5a11.86,11.86,0,0,1,10.65-6c8.28,0,12.39,6,12.39,13.68v21.95H698v-20.8c0-4.82-2-8.71-8.06-8.71-5.33,0-8.06,4.25-8.06,9.5Z"/><path class="cls-1" d="M718.74,385.54c.43,3.6,3.17,6.47,8.06,6.47,3.81,0,5.9-2.16,5.9-4.6,0-2.16-1.58-3.82-4.46-4.46l-5.9-1.3c-5.4-1.15-8.64-4.82-8.64-9.72C713.7,366,719.24,361,726,361c9.5,0,12.45,6.19,13.17,9.29l-6,2.23c-.29-1.8-1.73-5.76-7.2-5.76-3.46,0-5.76,2.23-5.76,4.61,0,2.08,1.29,3.6,4,4.17l5.61,1.22c6.26,1.37,9.58,5.19,9.58,10.3,0,4.89-4.11,10.72-12.67,10.72-9.5,0-13.53-6.12-14.11-10.07Z"/><path class="cls-1" d="M757.53,362.07H765v6.12h-7.49v18c0,3.17,1.3,4.75,4.83,4.75a14.1,14.1,0,0,0,2.66-.28v5.75a14.67,14.67,0,0,1-4.61.65c-5.9,0-9.64-3.6-9.64-9.86v-19h-6.62v-6.12H746c3.74,0,5.32-2.3,5.32-5.33v-5.61h6.19Z"/><path class="cls-1" d="M776.39,344.08a4.86,4.86,0,1,1-4.82,4.89A4.85,4.85,0,0,1,776.39,344.08Zm-3.31,52.61V362.07h6.69v34.62Z"/><path class="cls-1" d="M800.14,362.07h7.49v6.12h-7.49v18c0,3.17,1.3,4.75,4.83,4.75a14.1,14.1,0,0,0,2.66-.28v5.75a14.73,14.73,0,0,1-4.61.65c-5.9,0-9.64-3.6-9.64-9.86v-19h-6.63v-6.12h1.88c3.74,0,5.32-2.3,5.32-5.33v-5.61h6.19Z"/><path class="cls-1" d="M828.28,397.77c-8.06,0-12.95-6-12.95-13.89V362.07h6.76v20.8c0,4.75,2.16,8.93,7.85,8.93,5.47,0,8.21-3.6,8.21-8.85V362.07h6.76v28.22a59.15,59.15,0,0,0,.36,6.4h-6.48a31.39,31.39,0,0,1-.28-4.17C836.63,396.12,832.32,397.77,828.28,397.77Z"/><path class="cls-1" d="M865.35,362.07h7.49v6.12h-7.49v18c0,3.17,1.3,4.75,4.82,4.75a14.12,14.12,0,0,0,2.67-.28v5.75a14.73,14.73,0,0,1-4.61.65c-5.9,0-9.64-3.6-9.64-9.86v-19H852v-6.12h1.88c3.74,0,5.32-2.3,5.32-5.33v-5.61h6.19Z"/><path class="cls-1" d="M911.27,386.83c-1.94,6.12-7.48,10.94-15.54,10.94-9.29,0-17.42-6.76-17.42-18.5,0-10.86,7.84-18.28,16.55-18.28,10.65,0,16.63,7.34,16.63,18.14a15.66,15.66,0,0,1-.14,2.16H885.29c.14,6.19,4.61,10.51,10.44,10.51,5.61,0,8.42-3.1,9.71-7Zm-6.83-11c-.15-5-3.39-8.85-9.51-8.85a9.32,9.32,0,0,0-9.43,8.85Z"/></g></g></svg>