<svg xmlns="http://www.w3.org/2000/svg" xml:space="preserve" width="1706.667" height="1066.667"><defs><clipPath id="a" clipPathUnits="userSpaceOnUse"><path d="M0 800h1280V0H0Z"/></clipPath></defs><g clip-path="url(#a)" transform="matrix(1.33333 0 0 -1.33333 0 1066.667)"><path d="M0 0c4 2.343 9.774 3.905 15.047 3.905C27.154 3.905 34-1.953 34-13.475v-63.044c7.688 6.021 16.913 10.167 27 11.72V-8.24c0 23.043-14.194 35.541-38.995 35.541C14.194 27.301 6 25.348 0 22.419v48.242l-27-15.577v-91.91A58.295 58.295 0 0 0 0-51.989z" style="fill:#fff;fill-opacity:1;fill-rule:nonzero;stroke:none" transform="translate(412 430.7)"/><path d="m0 0-27-15.576v-75.926a58.022 58.022 0 0 0 27-9.946z" style="fill:#fff;fill-opacity:1;fill-rule:nonzero;stroke:none" transform="translate(515 457.775)"/><path d="M0 0c0 19.917 8.943 33.807 25.542 33.807h.04c4.686 0 10.419-1.025 12.419-2v-43.62a65.042 65.042 0 0 0 23.6 4.419c.805 0 1.602-.032 2.4-.06v109.858l-26-15.691V56.658c-4 1.172-9.529 2.149-15.192 2.149-32.222 0-49.289-21.872-49.289-54.288 0-24.706 9.564-43.771 27.7-52.444a65.272 65.272 0 0 0 11.653 18.664C4.511-24.749 0-14.946 0 0" style="fill:#fff;fill-opacity:1;fill-rule:nonzero;stroke:none" transform="translate(554.999 399.193)"/><path d="M0 0c4.297 0 8.474-.586 11.794-1.562l4.823 25.067c-3.515.586-8.217.976-13.683.976-16.991 0-31.977-3.32-42.977-7.616v-80.72c11.336-3.797 20.879-11.544 27-21.634v83.342C-10.043-.781-4.881 0 0 0" style="fill:#fff;fill-opacity:1;fill-rule:nonzero;stroke:none" transform="translate(785.043 433.604)"/><path d="M0 0a16.017 16.017 0 0 0-.516 4.061c0 15.817 17.639 16.575 36.639 17.551V1.971c9.508-2.53 18.054-7.4 25-13.954v55.928c0 26.949-14.793 37.494-41.742 37.494-15.233 0-30.146-3.906-38.935-7.616l6.306-19.569c7.42 3.124 19.806 5.852 29.765 5.852 12.107 0 19.606-4.1 19.606-15.037v-4.467c-32-1.758-61.56-8.421-61.56-37.127 0-6.688 1.517-12.503 4.56-17.343A58.441 58.441 0 0 0 0 0" style="fill:#fff;fill-opacity:1;fill-rule:nonzero;stroke:none" transform="translate(830.877 376.647)"/><path d="M0 0c-10.063 5.811-22.934 2.363-28.745-7.701-5.811-10.066-2.362-22.935 7.702-28.745a20.963 20.963 0 0 1 10.522-2.823c7.265.007 14.329 3.78 18.223 10.525 3.894 6.744 3.63 14.747.003 21.043A20.952 20.952 0 0 1 0 0" style="fill:#fff;fill-opacity:1;fill-rule:nonzero;stroke:none" transform="translate(692.474 419.178)"/><path d="M0 0a27.357 27.357 0 0 0 13.745-3.687 27.366 27.366 0 0 0 8.353-7.448L46.489 2.979.02 29.812.001 29.8-46.497 2.937l24.393-14.084C-16.812-3.974-8.513-.009 0 0" style="fill:#fff;fill-opacity:1;fill-rule:nonzero;stroke:none" transform="translate(681.953 428.448)"/><path d="M0 0c.739 0 1.474-.024 2.205-.056l.068.039.078 53.748-24.446-14.127a27.45 27.45 0 0 0-1.423-24.729c-4.5-7.791-11.644-12.543-20.644-13.545v-27.866C-35.686-10.735-19.09 0 0 0" style="fill:#fff;fill-opacity:1;fill-rule:nonzero;stroke:none" transform="translate(729.162 372.333)"/><path d="M0 0v27.989c-4 .395-7.373 1.548-10.806 3.532a27.303 27.303 0 0 0-10.052 10.06c-4.249 7.376-4.965 16.548-1.397 24.717l-24.559 14.083-.125-36.068C-24.547 38.869-6.678 21.882 0 0" style="fill:#fff;fill-opacity:1;fill-rule:nonzero;stroke:none" transform="translate(679 345.627)"/><path d="M0 0c7.333 0 13.279 5.945 13.279 13.279S7.333 26.559 0 26.559c-7.334 0-13.279-5.946-13.279-13.28S-7.334 0 0 0" style="fill:#fff;fill-opacity:1;fill-rule:nonzero;stroke:none" transform="translate(501.657 475.223)"/><path d="M0 0v-3.947h-4.285v-4.539h3.862v-3.947h-3.862v-8.824h-4.201V0Z" style="fill:#d1d1d1;fill-opacity:1;fill-rule:nonzero;stroke:none" transform="translate(393.488 324.42)"/><path d="M0 0v-17.311h4.397v-3.946h-8.598V0z" style="fill:#d1d1d1;fill-opacity:1;fill-rule:nonzero;stroke:none" transform="translate(421.025 324.42)"/><path d="M0 0v-3.947h-4.257V-8.57h3.75v-3.947h-3.75v-4.794H.056v-3.946h-8.514V0z" style="fill:#d1d1d1;fill-opacity:1;fill-rule:nonzero;stroke:none" transform="translate(456.512 324.42)"/><path d="m0 0 1.212-2.96c.367-1.043.789-2.143 1.015-3.242h.057c.225 1.099.563 2.171.958 3.242L4.511 0H9.05L4.511-10.29l4.877-10.967H4.511l-1.353 3.383c-.395 1.071-.649 2.114-.931 3.186h-.056c-.31-1.072-.565-2.115-.93-3.186L0-21.257h-4.737L-.226-10.29-4.737 0Z" style="fill:#d1d1d1;fill-opacity:1;fill-rule:nonzero;stroke:none" transform="translate(483.683 324.42)"/><path d="M0 0c-.846.733-1.889 1.354-3.045 1.354-1.297 0-2.115-.79-2.115-2.086 0-3.497 6.4-3.693 6.4-9.445 0-3.778-2.17-6.626-6.117-6.626-1.185 0-2.651.366-3.609 1.072v4.002c.986-.676 1.945-1.126 3.186-1.126 1.353 0 2.424.902 2.424 2.312 0 1.634-1.297 2.255-2.48 3.101-2.426 1.635-3.92 3.213-3.92 6.315 0 3.355 1.945 6.259 5.554 6.259 1.353 0 2.566-.366 3.722-1.043z" style="fill:#d1d1d1;fill-opacity:1;fill-rule:nonzero;stroke:none" transform="translate(552.262 319.627)"/><path d="m0 0 1.804-10.149c.254-1.494.31-3.017.451-4.511h.057c.197 1.494.31 3.017.62 4.511L5.046 0h3.328l2.706-14.66h.056c.141 1.494.169 2.961.423 4.454L13.222 0h4.399l-4.399-21.257H9.585l-2.17 11.22c-.142 1.298-.395 2.595-.593 3.891h-.056c-.225-1.296-.367-2.593-.677-3.891l-2.424-11.22H0L-4.285 0Z" style="fill:#d1d1d1;fill-opacity:1;fill-rule:nonzero;stroke:none" transform="translate(579.657 324.42)"/><path d="M623.91 303.163h-4.201v21.257h4.201z" style="fill:#d1d1d1;fill-opacity:1;fill-rule:nonzero;stroke:none"/><path d="M0 0c-.847.733-1.89 1.354-3.045 1.354-1.297 0-2.114-.79-2.114-2.086 0-3.497 6.399-3.693 6.399-9.445 0-3.778-2.171-6.626-6.118-6.626-1.184 0-2.649.366-3.608 1.072v4.002c.986-.676 1.945-1.126 3.185-1.126 1.354 0 2.425.902 2.425 2.312 0 1.634-1.297 2.255-2.481 3.101-2.424 1.635-3.918 3.213-3.918 6.315 0 3.355 1.945 6.259 5.553 6.259 1.354 0 2.566-.366 3.722-1.043z" style="fill:#d1d1d1;fill-opacity:1;fill-rule:nonzero;stroke:none" transform="translate(656.354 319.627)"/><path d="M0 0c-.846.733-1.889 1.354-3.044 1.354-1.297 0-2.115-.79-2.115-2.086 0-3.497 6.4-3.693 6.4-9.445 0-3.778-2.172-6.626-6.118-6.626-1.184 0-2.65.366-3.608 1.072v4.002c.986-.676 1.945-1.126 3.184-1.126 1.355 0 2.425.902 2.425 2.312 0 1.634-1.296 2.255-2.48 3.101-2.424 1.635-3.919 3.213-3.919 6.315 0 3.355 1.945 6.259 5.553 6.259 1.355 0 2.567-.366 3.722-1.043z" style="fill:#d1d1d1;fill-opacity:1;fill-rule:nonzero;stroke:none" transform="translate(689.472 319.627)"/><path d="M0 0a6.052 6.052 0 0 1-1.578.226c-3.693 0-5.301-3.355-5.301-6.626 0-3.157 1.608-7.048 5.273-7.048.535 0 1.071.14 1.606.31v-3.975a5.071 5.071 0 0 0-1.945-.366c-6.061 0-9.416 5.469-9.416 11.051 0 5.272 3.496 10.685 9.218 10.685.734 0 1.439-.142 2.143-.394z" style="fill:#d1d1d1;fill-opacity:1;fill-rule:nonzero;stroke:none" transform="translate(752.074 320.417)"/><path d="M0 0v-17.311h4.398v-3.946H-4.2V0Z" style="fill:#d1d1d1;fill-opacity:1;fill-rule:nonzero;stroke:none" transform="translate(779.132 324.42)"/><path d="M0 0c2.791 0 2.988 5.385 2.988 7.077 0 1.889-.197 7.075-2.988 7.075s-2.988-5.186-2.988-7.075C-2.988 5.385-2.791 0 0 0m7.471 7.077C7.471-.902 3.75-3.891 0-3.891S-7.471-.902-7.471 7.077-3.75 18.044 0 18.044s7.471-2.988 7.471-10.967" style="fill:#d1d1d1;fill-opacity:1;fill-rule:nonzero;stroke:none" transform="translate(812.871 306.715)"/><path d="M0 0v-13.758c0-1.606-.197-4.031 2.086-4.031 2.059 0 2.059 1.551 2.087 3.129V0h4.2v-15.506c0-2.255-.254-6.09-6.315-6.09-3.919 0-6.258 1.833-6.258 5.808V0Z" style="fill:#d1d1d1;fill-opacity:1;fill-rule:nonzero;stroke:none" transform="translate(847.37 324.42)"/><path d="M0 0c0 2.706-.846 6.991-4.313 6.991V-6.711C-.931-6.88 0-2.65 0 0m-8.514-10.488v21.257h3.185c.733 0 9.53 1.072 9.53-10.797 0-6.063-2.341-10.46-8.966-10.46z" style="fill:#d1d1d1;fill-opacity:1;fill-rule:nonzero;stroke:none" transform="translate(887.847 313.651)"/></g></svg>