<svg xmlns="http://www.w3.org/2000/svg" viewBox="0 0 491 189"><defs><linearGradient x1="39.408%" y1="83.054%" x2="-39.265%" y2="-39.203%" id="a"><stop stop-color="#fff" offset="0%"/><stop stop-color="#fff" offset="100%"/></linearGradient><linearGradient x1="72.606%" y1="75.293%" x2="133.479%" y2="-14.855%" id="b"><stop stop-color="#fff" offset="0%"/><stop stop-color="#fff" offset="100%"/></linearGradient></defs><g fill="none" fill-rule="evenodd"><path d="M7.708 159.004V83.626h18.298v75.787c0 15.966-9.219 28.623-26.006 28.757v-17.885c7.567-.69 7.708-4.265 7.708-11.281m65.575-75.372c22.564 0 40.45 18.16 40.45 40.586 0 23.114-17.333 40.866-40.45 40.866-22.291 0-40.727-18.3-40.727-40.591 0-22.426 18.163-40.861 40.727-40.861m88 81.413.01.039c-19.359-.066-40.424-15.658-41.493-36.87-.038-.743 0-3.391 0-4.147V60.793h18.3v32.166a47.88 47.88 0 0 1 1.042-.767c3.89-3.543 8.66-6.035 13.777-7.373 1.293-.398 2.49-.683 3.475-.755v.034c1.825-.286 3.665-.466 5.508-.466 10.42 0 19.5 4.232 26.225 10.914l-7.577 21.018c-3.023-8.78-10.636-15.15-20.847-15.15-12.657 0-22.705 10.458-22.705 22.982 0 13.478 8.946 24.9 22.978 24.9 3.556 0 6.747-.762 9.534-2.105l-6.807 18.88c-.13 0-.256.013-.386.013-.362 0-.683-.034-1.035-.04zm47.4-64.244v63.151h-14.31V62.14h14.31v25.59h12.523v13.071zm138.179 63.106V61h14.31v102.907zm49.72-80.211h16.923l-32.656 38.911 32.062 41.313h-17.887l-30.547-40.489zm-145.14 19.445c-6.742 3.437-8.392 12.243-8.392 19.123v41.69h-14.308V83.73h13.345v10.88h.273c4.678-6.607 11.695-8.666 19.4-8.947v14.723c-3.166 0-7.564 1.238-10.318 2.755m66.194 42.473h16.392c-6.937 11.81-19.293 19.302-33.466 19.302-21.738 0-38.801-18.85-38.801-40.172 0-22.018 16.79-40.043 39.075-40.043 21.602 0 38.8 17.752 38.8 39.215 0 2.338-.134 4.813-.41 7.153H276.07c2.89 11.835 12.524 20.78 25.047 20.78a25.167 25.167 0 0 0 16.519-6.235m-244.353 2.682c12.933 0 22.152-11.146 22.152-23.664 0-12.248-9.22-24.217-22.152-24.217-12.936 0-22.431 11.694-22.431 24.078 0 12.796 9.222 23.803 22.43 23.803zm227.42-50.523c-12.383 0-23.805 9.768-24.633 22.292h49.258c-.823-12.524-12.242-22.292-24.625-22.292" fill="#FFF"/><path d="m448.177 79.56.232-.125.006-.003c-.08.041-.159.086-.24.127a51.815 51.815 0 0 0 .002 0m27.206-59.39c.307.156.591.3.9.462-2.518-11.201-8.236-15.838-8.369-15.944a39.19 39.19 0 0 1 4.881 2.717 39.151 39.151 0 0 0-21.032-6.401c-16.977-.204-31.569 10.372-37.266 25.37-1.595 4.2 2.67.832 2.318 1.184a53.382 53.382 0 0 1 17.963-10.246 53.048 53.048 0 0 1 40.605 2.858" fill="#fff"/><path d="M411.947 39.873c-.249 20.676 15.5 37.806 35.749 39.644-.517-.24-1.033-.48-1.548-.728a52.973 52.973 0 0 1-22.385-21.128c-4.137-7.006-5.995-14.07-6.69-20.201-.021-.181-.04-.363-.06-.544-.009-.081-.015-.161-.023-.242a52.93 52.93 0 0 1-.175-9.118l.029-.023c.335-5.066 1.245-8.277 1.255-8.314a39.164 39.164 0 0 0-6.152 20.654" fill="url(#a)"/><path d="M476.283 20.631a53.081 53.081 0 0 1-4.352 35.137c-5.305 10.61-13.691 18.672-23.521 23.668l-.233.123c.874.068 1.752.12 2.641.13 21.729.26 39.553-17.14 39.814-38.869.193-15.956-9.143-29.795-22.718-36.133.134.105 5.851 4.743 8.369 15.944" fill="url(#b)"/></g></svg>