<svg viewBox="0 0 248 58" width="248" height="58" fill="none" xmlns="http://www.w3.org/2000/svg"><g clip-path="url(#clip0_783:105)" fill="#fff"><path d="M48.297 13.63v-.05l-.006.001a2.331 2.331 0 0 0-2.475-2.119 2.338 2.338 0 0 0-2.159 2.499h-.001v33.052c0 1.713-.609 3.185-1.827 4.412-1.218 1.228-2.64 1.842-4.264 1.842-1.876 0-3.422-.614-4.641-1.842-1.2-1.189-1.818-2.688-1.856-4.502V33.17h-.008l.001-.043a2.329 2.329 0 0 0-2.417-2.233 2.327 2.327 0 0 0-2.215 2.287h-.003v13.833c0 2.998 1.064 5.59 3.19 7.773 2.09 2.143 4.68 3.214 7.775 3.214 3.017 0 5.588-1.07 7.715-3.214s3.19-4.734 3.19-7.773V13.945a2.24 2.24 0 0 0 .001-.309v-.007M94.663 8.747c.791 0 1.465-.287 2.021-.863.556-.576.835-1.26.835-2.058 0-.811-.279-1.497-.835-2.057-.57-.576-1.245-.863-2.02-.863-.791 0-1.466.287-2.021.863a2.847 2.847 0 0 0-.835 2.057c0 .813.277 1.501.835 2.07.555.568 1.23.851 2.02.851zM45.918 2.906c-.79 0-1.465.287-2.021.863a2.853 2.853 0 0 0-.834 2.057c0 .813.277 1.501.834 2.07.556.568 1.23.851 2.021.851.791 0 1.465-.287 2.021-.863.557-.576.835-1.26.835-2.058 0-.811-.278-1.497-.835-2.057-.57-.576-1.245-.863-2.02-.863zM67.895 35.236c-.039 1.812-.658 3.312-1.857 4.5-1.237 1.227-2.668 1.84-4.293 1.84-1.68 0-3.18-.613-4.495-1.84-1.295-1.208-1.944-2.708-1.944-4.5V24.481c.02-1.676.63-3.117 1.828-4.326 1.218-1.227 2.64-1.84 4.263-1.84 1.857 0 3.404.613 4.641 1.84 1.199 1.19 1.818 2.689 1.857 4.501v10.58zM61.572 13.58c-3.017 0-5.588 1.072-7.715 3.216-2.128 2.143-3.19 4.733-3.19 7.773v10.754c0 3.04 1.062 5.631 3.19 7.775 2.127 2.143 4.698 3.214 7.715 3.214 3.016 0 5.597-1.071 7.744-3.214 2.146-2.144 3.22-4.736 3.22-7.775V24.569c0-3.04-1.074-5.63-3.22-7.773-2.147-2.144-4.728-3.216-7.744-3.216M183.033 29.916V24.57c0-1.714.609-3.186 1.828-4.413 1.217-1.228 2.639-1.84 4.262-1.84 1.859 0 3.404.614 4.643 1.844 1.12 1.113 1.728 2.49 1.826 4.13l-12.559 5.626zm17.228-5.347c0-3.157-1.074-5.747-3.218-7.774-2.262-2.143-4.845-3.216-7.745-3.216-3.016 0-5.589 1.073-7.717 3.216-2.126 2.143-3.189 4.734-3.189 7.774v10.754c0 3.04 1.063 5.632 3.189 7.774 2.128 2.144 4.701 3.215 7.717 3.215 3.015 0 5.511-1.053 7.484-3.157 2.319-2.494 3.479-5.105 3.479-7.832v-1.83a2.338 2.338 0 0 0-2.329-2.324 2.336 2.336 0 0 0-2.302 1.993l-.009-.002v.075a2.366 2.366 0 0 0-.019.28c0 .097.008.19.019.283v1.438c-.039 1.811-.658 3.313-1.855 4.5-1.239 1.227-2.67 1.841-4.294 1.841-1.856 0-3.394-.628-4.611-1.885-1.219-1.256-1.828-2.809-1.828-4.66l17.228-7.716v-2.747zM171.907 35.236c-.04 1.812-.66 3.312-1.856 4.5-1.239 1.227-2.669 1.84-4.293 1.84-1.682 0-3.181-.613-4.497-1.84-1.295-1.208-1.944-2.708-1.944-4.5V24.481c.02-1.676.629-3.117 1.829-4.326 1.219-1.227 2.64-1.84 4.264-1.84 1.856 0 3.402.613 4.641 1.84 1.196 1.19 1.816 2.689 1.856 4.501v10.58zM174.249.451a2.334 2.334 0 0 0-2.326 2.267h-.016v12.85c-1.838-1.325-3.945-1.988-6.323-1.988-3.017 0-5.587 1.072-7.715 3.216-2.128 2.143-3.19 4.733-3.19 7.773v10.754c0 3.04 1.062 5.631 3.19 7.775 2.128 2.143 4.698 3.214 7.715 3.214 3.016 0 5.598-1.071 7.744-3.214 2.147-2.144 3.22-4.736 3.22-7.775V3.156A2.338 2.338 0 0 0 174.249.45"/><path d="M148.099 35.236c-.039 1.812-.657 3.312-1.856 4.5-1.238 1.227-2.667 1.84-4.292 1.84-1.683 0-3.181-.613-4.497-1.84-1.295-1.208-1.944-2.708-1.944-4.5v-1.765c.002-.056.009-.109.009-.164V30.88l-.009.003v-6.403c.02-1.676.629-3.117 1.828-4.326 1.219-1.227 2.64-1.84 4.264-1.84 1.858 0 3.403.613 4.641 1.84 1.199 1.19 1.817 2.689 1.856 4.501v10.58zm-6.323-21.656c-3.017 0-5.587 1.072-7.715 3.216-2.127 2.143-3.189 4.733-3.189 7.773v8.975c-.036 2.272-.861 4.211-2.488 5.811-1.663 1.658-3.645 2.484-5.947 2.484-2.339 0-4.332-.826-5.975-2.484-1.498-1.508-2.306-3.296-2.439-5.357v-1.013l-.026.004V15.072c0-2.339.821-4.33 2.465-5.977 1.643-1.646 3.636-2.47 5.975-2.47 2.302 0 4.284.828 5.947 2.484.677.675 1.4 1.788 1.992 2.85a2.26 2.26 0 0 0 3.101.828 2.294 2.294 0 0 0 .926-2.916l.005-.004c-.631-1.399-1.537-2.695-2.719-3.884-2.513-2.553-5.597-3.829-9.252-3.829-3.616 0-6.7 1.27-9.252 3.813-2.553 2.543-3.829 5.607-3.829 9.19v18.15c0 .189.018.369.025.555-.021 3.108-.629 4.427-1.826 5.727-1.217 1.326-2.639 1.988-4.264 1.988-1.856 0-3.403-.614-4.64-1.842-1.2-1.187-1.817-2.687-1.857-4.499V13.58l-.012.001v-.028a2.321 2.321 0 0 0-2.409-2.232 2.326 2.326 0 0 0-2.216 2.429c0 .008.003.016.003.026h-.006v21.246l-.02.009c0 1.715-.608 3.234-1.827 4.558-1.218 1.326-2.64 1.988-4.264 1.988-1.857 0-3.403-.614-4.641-1.842-1.198-1.187-1.818-2.687-1.855-4.499V2.488c.002-.049.007-.097.007-.147A2.333 2.333 0 0 0 77.23 0a2.332 2.332 0 0 0-2.324 2.341v.008h-.002v32.974c0 3.04 1.074 5.631 3.22 7.775 2.148 2.143 4.729 3.214 7.745 3.214s5.588-1.071 7.716-3.214c.323-.327.615-.67.89-1.016.278.346.57.689.898 1.016 2.146 2.143 4.728 3.214 7.745 3.214 3.017 0 5.588-1.071 7.715-3.214a11.69 11.69 0 0 0 1.378-1.667c.303.37.623.732.974 1.082 2.532 2.532 5.617 3.799 9.252 3.799 3.616 0 6.7-1.273 9.252-3.814.353-.352.675-.716.979-1.087.399.589.863 1.151 1.393 1.687 2.128 2.143 4.698 3.214 7.715 3.214 3.016 0 5.599-1.071 7.746-3.214 2.145-2.144 3.219-4.736 3.219-7.775V24.569c0-3.04-1.074-5.63-3.219-7.773-2.147-2.144-4.73-3.216-7.746-3.216M230.405 47.991c-.54 0-1.081-.207-1.493-.622a2.141 2.141 0 0 1 0-3.01L242.9 30.266l-13.988-14.094a2.141 2.141 0 0 1 0-3.01 2.101 2.101 0 0 1 2.988 0l15.482 15.599c.396.399.618.94.618 1.505s-.222 1.106-.618 1.504L231.9 47.37a2.099 2.099 0 0 1-1.495.622zM17.594 47.437c-.54 0-1.08-.208-1.493-.624L.618 31.215a2.137 2.137 0 0 1 0-3.01L16.1 12.607a2.1 2.1 0 0 1 2.987 0c.826.83.826 2.179 0 3.01L5.1 29.71l13.988 14.093c.826.83.826 2.178 0 3.01a2.096 2.096 0 0 1-1.493.623zM205.474 52.753c-.267 0-.539-.051-.803-.16a2.133 2.133 0 0 1-1.149-2.78l16.655-40.716a2.106 2.106 0 0 1 2.758-1.157 2.133 2.133 0 0 1 1.147 2.778l-16.654 40.716a2.112 2.112 0 0 1-1.954 1.32z"/></g><defs><clipPath id="clip0_783:105"><path fill="#fff" d="M0 0h248v58H0z"/></clipPath></defs></svg>
