<svg width="739" height="211" viewBox="0 0 739 211" fill="none" xmlns="http://www.w3.org/2000/svg">
<path fill-rule="evenodd" clip-rule="evenodd" d="M93.369 207.452C98.6609 207.452 102.639 206.054 105.3 203.267C107.965 200.476 109.295 196.342 109.295 190.869C109.295 179.885 103.987 174.391 93.369 174.391H84.3933V207.452H93.369ZM81 171.439H93.5332C99.7387 171.439 104.517 173.119 107.872 176.475C111.232 179.83 112.908 184.629 112.908 190.869C112.908 197.108 111.219 201.924 107.843 205.317C104.471 208.711 99.7008 210.407 93.5332 210.407H81V171.439Z" fill="white"/>
<path fill-rule="evenodd" clip-rule="evenodd" d="M132.393 210.408H135.786V171.441H132.393V210.408Z" fill="white"/>
<path fill-rule="evenodd" clip-rule="evenodd" d="M186.904 190.431V208.218C185.481 208.984 183.527 209.616 181.048 210.108C178.568 210.597 176.067 210.845 173.55 210.845C169.752 210.845 166.49 210.049 163.753 208.462C161.017 206.875 158.924 204.585 157.484 201.596C156.045 198.602 155.325 195.028 155.325 190.869C155.325 186.747 156.045 183.185 157.484 180.196C158.924 177.203 160.996 174.921 163.698 173.355C166.397 171.785 169.588 171.002 173.276 171.002C178.783 171.002 183.199 172.698 186.521 176.092L185.098 178.769C183.237 177.094 181.368 175.881 179.486 175.132C177.608 174.382 175.52 174.012 173.221 174.012C168.624 174.012 165.075 175.469 162.574 178.39C160.074 181.308 158.827 185.467 158.827 190.869C158.827 196.38 160.095 200.594 162.629 203.507C165.163 206.433 168.826 207.886 173.605 207.886C177.288 207.886 180.698 207.288 183.839 206.084V193.327H173.55V190.431H186.904Z" fill="white"/>
<path fill-rule="evenodd" clip-rule="evenodd" d="M207.483 210.408H210.876V171.441H207.483V210.408Z" fill="white"/>
<path fill-rule="evenodd" clip-rule="evenodd" d="M241.469 210.408V174.391H227.513V171.44H258.819V174.391H244.862V210.408H241.469Z" fill="white"/>
<path fill-rule="evenodd" clip-rule="evenodd" d="M281.092 197.054H299.536L290.342 175.545L281.092 197.054ZM305.283 210.408L300.85 200.005H279.834L275.346 210.408H271.843L288.809 171.44H291.874L308.786 210.408H305.283Z" fill="white"/>
<path fill-rule="evenodd" clip-rule="evenodd" d="M326.188 210.408V171.44H329.581V207.452H349.721V210.408H326.188Z" fill="white"/>
<path fill-rule="evenodd" clip-rule="evenodd" d="M419.72 171.44H423.113V210.408H419.72V192.128H394.873V210.408H391.479V171.44H394.873V189.114H419.72V171.44Z" fill="white"/>
<path fill-rule="evenodd" clip-rule="evenodd" d="M444.129 210.408V171.44H468.155V174.341H447.467V189.114H467.061V192.128H447.467V207.507H468.155V210.408H444.129Z" fill="white"/>
<path fill-rule="evenodd" clip-rule="evenodd" d="M501.926 190.049C508.308 190.049 511.504 187.384 511.504 182.058C511.504 176.913 508.308 174.341 501.926 174.341H490.433V190.049H501.926ZM517.086 210.408H513.583L508.712 197.437C508.089 195.686 507.235 194.511 506.14 193.905C505.045 193.303 503.458 193.004 501.379 193.004H490.487V210.408H487.094V171.44H502.145C506.195 171.44 509.331 172.362 511.558 174.202C513.781 176.046 514.897 178.682 514.897 182.109C514.897 184.63 514.227 186.748 512.897 188.461C511.567 190.175 509.66 191.379 507.18 192.069C508.308 192.255 509.276 192.73 510.081 193.492C510.88 194.263 511.558 195.395 512.106 196.89L517.086 210.408Z" fill="white"/>
<path fill-rule="evenodd" clip-rule="evenodd" d="M561.773 203.402C564.198 200.446 565.41 196.27 565.41 190.864C565.41 185.467 564.21 181.308 561.798 178.39C559.394 175.469 555.98 174.012 551.563 174.012C547.185 174.012 543.783 175.481 541.358 178.416C538.929 181.354 537.717 185.505 537.717 190.864C537.717 196.232 538.929 200.4 541.358 203.372C543.783 206.349 547.185 207.835 551.563 207.835C555.942 207.835 559.344 206.357 561.773 203.402ZM542.344 208.437C539.733 206.829 537.729 204.534 536.323 201.541C534.917 198.552 534.218 195.011 534.218 190.923C534.218 186.836 534.909 183.299 536.294 180.306C537.683 177.317 539.679 175.014 542.289 173.41C544.895 171.802 547.989 171.002 551.563 171.002C555.142 171.002 558.241 171.802 560.868 173.41C563.495 175.014 565.503 177.304 566.888 180.276C568.273 183.253 568.968 186.785 568.968 190.864C568.968 194.952 568.265 198.501 566.863 201.516C565.456 204.526 563.448 206.829 560.842 208.437C558.232 210.041 555.142 210.845 551.563 210.845C548.027 210.845 544.95 210.041 542.344 208.437Z" fill="white"/>
<path fill-rule="evenodd" clip-rule="evenodd" d="M588.507 210.408V171.44H612.533V174.341H591.845V189.114H611.438V192.128H591.845V207.507H612.533V210.408H588.507Z" fill="white"/>
<path fill-rule="evenodd" clip-rule="evenodd" d="M635.439 209.614C633.086 208.793 630.998 207.505 629.171 205.754L630.594 203.072C632.53 204.789 634.488 206.01 636.479 206.739C638.466 207.467 640.828 207.833 643.565 207.833C646.848 207.833 649.404 207.16 651.227 205.812C653.054 204.457 653.963 202.562 653.963 200.116C653.963 198.693 653.517 197.536 652.625 196.643C651.728 195.746 650.6 195.048 649.231 194.534C647.863 194.024 646.049 193.515 643.784 193.006C640.79 192.345 638.357 191.658 636.479 190.947C634.597 190.235 633.023 189.175 631.747 187.752C630.467 186.324 629.827 184.43 629.827 182.055C629.827 179.87 630.396 177.934 631.524 176.254C632.657 174.578 634.269 173.282 636.37 172.368C638.466 171.459 640.9 171 643.678 171C646.339 171 648.802 171.434 651.063 172.288C653.328 173.147 655.277 174.414 656.923 176.09L655.496 178.772C653.673 177.13 651.812 175.926 649.913 175.159C648.019 174.393 645.939 174.01 643.678 174.01C640.39 174.01 637.826 174.722 635.987 176.145C634.143 177.572 633.221 179.521 633.221 182.001C633.221 184.156 634.025 185.76 635.629 186.817C637.237 187.878 639.586 188.77 642.689 189.503L644.276 189.882C647.194 190.576 649.513 191.254 651.227 191.907C652.945 192.564 654.401 193.553 655.609 194.862C656.809 196.18 657.411 197.931 657.411 200.116C657.411 202.234 656.847 204.103 655.715 205.728C654.582 207.353 652.97 208.612 650.873 209.505C648.772 210.401 646.339 210.843 643.565 210.843C640.5 210.843 637.793 210.431 635.439 209.614Z" fill="white"/>
<path fill-rule="evenodd" clip-rule="evenodd" d="M103.987 110.218C98.6529 104.547 95.988 95.3144 95.988 82.516V22.9024L59.1084 111.144H53.5512L8.42 19.5344V111.144H0V0H20.5448L61.2976 82.6844L95.8196 0H117.88V82.516C117.88 93.0705 118.777 100.817 120.574 105.755C122.368 110.694 125.567 113.615 130.173 114.512V118.722C118.048 118.722 109.317 115.889 103.987 110.218Z" fill="white"/>
<path fill-rule="evenodd" clip-rule="evenodd" d="M176.819 102.977C178.503 102.022 180.128 100.704 181.703 99.02C183.159 97.4497 184.283 95.5931 185.071 93.4586V72.4086H182.545C174.571 72.4086 168.791 73.8442 165.199 76.707C161.604 79.5656 159.811 84.0324 159.811 90.0906C159.811 94.6963 160.762 98.2327 162.673 100.704C164.581 103.175 167.275 104.409 170.757 104.409C173.114 104.409 175.135 103.933 176.819 102.977ZM144.57 106.682C139.573 102.582 137.077 97.0581 137.077 90.0906C137.077 84.4787 138.394 79.8224 141.034 76.1176C143.67 72.4086 148.301 69.6047 154.927 67.6976C161.549 65.7905 170.757 64.8306 182.545 64.8306H185.071C185.071 55.0676 183.723 48.1379 181.029 44.0374C178.335 39.9369 174.348 37.8908 169.073 37.8908C164.694 37.8908 161.099 38.9559 158.295 41.0904C155.487 43.2249 153.466 47.2117 152.233 53.0468H142.971C142.971 49.2283 143.223 45.974 143.728 43.2754C144.234 40.5852 145.383 38.2276 147.181 36.2068C150.658 32.2789 159.078 30.3086 172.441 30.3086C183.665 30.3086 192.228 33.2556 198.122 39.1538C204.016 45.0436 206.963 53.8888 206.963 65.6768V111.141H192.649L186.755 103.567H185.913C184.902 105.141 183.328 106.712 181.197 108.282C177.379 111.309 172.213 112.829 165.705 112.829C156.611 112.829 149.564 110.783 144.57 106.682Z" fill="white"/>
<path fill-rule="evenodd" clip-rule="evenodd" d="M339.321 31.9955L316.419 83.6943L301.6 51.3615C297.781 43.1647 293.319 37.6117 288.212 34.6899C283.101 31.7724 276.786 30.3115 269.267 30.3115L268.551 30.3452C268.337 30.341 268.143 30.3115 267.92 30.3115C266.392 30.3115 264.906 30.4336 263.449 30.6231L263.036 30.6483V30.6778C256.961 31.5451 251.509 34.0416 246.701 38.2263C245.468 35.9824 243.754 34.3826 241.565 33.4269C239.376 32.4755 236.37 31.9955 232.556 31.9955H215.884V37.0475H217.568C222.283 37.0475 225.399 38.4242 226.914 41.1733C228.43 43.9267 229.188 48.1619 229.188 53.8875V111.144H251.08V54.5611C251.08 52.8771 250.966 51.0289 250.743 49.0039L250.406 46.4779C253.888 43.0005 258.881 41.2575 265.394 41.2575C268.648 41.2575 271.511 42.3816 273.982 44.6255C274.412 45.0171 274.778 45.3917 275.157 45.7664C276.066 47.4462 277.013 49.2607 278.024 51.3615L306.483 112.828H312.546L348.415 31.9955H339.321Z" fill="white"/>
<path fill-rule="evenodd" clip-rule="evenodd" d="M405.674 67.024C405.674 56.4695 404.437 48.9799 401.969 44.5426C399.498 40.1053 395.962 37.8908 391.36 37.8908C387.091 37.8908 383.639 40.1642 381.004 44.711C378.364 49.2536 377.046 56.6969 377.046 67.024H405.674ZM372.668 107.44C366.829 103.849 362.311 98.9358 359.112 92.705C355.912 86.4742 354.312 79.4267 354.312 71.5708C354.312 62.814 355.912 55.3497 359.112 49.1736C362.311 43.0017 366.715 38.3118 372.331 35.1122C377.943 31.9126 384.287 30.3086 391.36 30.3086C398.319 30.3086 404.605 31.7147 410.221 34.5186C415.833 37.3267 420.266 41.2883 423.525 46.395C426.779 51.5017 428.408 57.3705 428.408 63.9886C428.408 66.1231 428.295 68.5354 428.071 71.234L427.735 74.602H377.046C377.046 85.2659 378.671 93.0418 381.93 97.9254C385.184 102.809 389.731 105.251 395.57 105.251C400.959 105.251 405.476 104.047 409.126 101.63C412.772 99.2137 416.283 95.7615 419.651 91.2736L424.872 95.1468C421.613 100.199 417.546 104.409 412.663 107.777C407.779 111.141 401.237 112.829 393.044 112.829C385.298 112.829 378.503 111.031 372.668 107.44Z" fill="white"/>
<path fill-rule="evenodd" clip-rule="evenodd" d="M444.571 21.89C444.571 16.1686 443.784 11.9291 442.214 9.17579C440.639 6.42666 437.499 5.04999 432.783 5.04999H431.099V0.00219727H451.307C455.349 0.00219727 458.435 0.671587 460.569 2.01879C462.7 3.3702 464.215 5.58466 465.116 8.67059C466.013 11.7607 466.463 16.1686 466.463 21.89V111.142H444.571V21.89Z" fill="white"/>
<path fill-rule="evenodd" clip-rule="evenodd" d="M536.855 95.9883C539.886 89.8122 541.401 81.6743 541.401 71.5703C541.401 61.4663 539.886 53.3284 536.855 47.1481C533.823 40.9805 529.445 37.8903 523.719 37.8903C517.994 37.8903 513.615 40.9805 510.584 47.1481C507.553 53.3284 506.037 61.4663 506.037 71.5703C506.037 81.6743 507.553 89.8122 510.584 95.9883C513.615 102.164 517.994 105.25 523.719 105.25C529.445 105.25 533.823 102.164 536.855 95.9883ZM502.248 107.355C496.127 103.709 491.441 98.7669 488.187 92.5361C484.929 86.3053 483.303 79.3167 483.303 71.5703C483.303 63.8197 484.929 56.8353 488.187 50.6045C491.441 44.3737 496.127 39.4312 502.248 35.7853C508.366 32.1395 515.523 30.3081 523.719 30.3081C531.912 30.3081 539.069 32.1395 545.19 35.7853C551.308 39.4312 555.993 44.3737 559.252 50.6045C562.506 56.8353 564.135 63.8197 564.135 71.5703C564.135 79.3167 562.506 86.3053 559.252 92.5361C555.993 98.7669 551.308 103.709 545.19 107.355C539.069 111.001 531.912 112.828 523.719 112.828C515.523 112.828 508.366 111.001 502.248 107.355Z" fill="white"/>
<path fill-rule="evenodd" clip-rule="evenodd" d="M589.562 105.42C584.51 100.477 581.984 92.6213 581.984 81.8395V53.8893C581.984 48.1595 581.196 43.9285 579.626 41.1709C578.052 38.426 574.911 37.0493 570.196 37.0493H568.512V31.9973H588.72C592.761 31.9973 595.847 32.6709 597.982 34.0181C600.112 35.3611 601.628 37.584 602.529 40.6657C603.425 43.7601 603.876 48.1595 603.876 53.8893V82.0079C603.876 90.4279 605.055 96.4061 607.412 99.9425C609.77 103.483 613.361 105.251 618.19 105.251C622.341 105.251 626.105 103.454 629.473 99.8625C630.706 98.629 631.999 96.7724 633.346 94.3011V31.9973H655.238V111.141H640.924L635.03 103.567H634.188C632.613 105.251 630.761 106.822 628.631 108.283C624.362 111.31 619.2 112.829 613.138 112.829C602.47 112.829 594.614 110.362 589.562 105.42Z" fill="white"/>
<path fill-rule="evenodd" clip-rule="evenodd" d="M676.792 105.921C674.994 104.242 673.87 101.855 673.424 98.7686C672.973 95.6785 672.75 91.3843 672.75 85.8818H678.644C679.654 91.7211 681.953 96.4068 685.548 99.9432C689.139 103.484 694.137 105.252 700.536 105.252C711.76 105.252 717.376 101.438 717.376 93.7966C717.376 90.8833 716.168 88.4668 713.755 86.5554C711.339 84.6483 707.495 82.5138 702.22 80.1604L693.463 76.4514C686.277 73.3108 680.888 69.8838 677.297 66.1832C673.701 62.4784 671.908 57.9864 671.908 52.707C671.908 45.6384 674.855 40.136 680.749 36.2038C686.643 32.2801 694.36 30.3098 703.904 30.3098C717.039 30.3098 726.074 32.6127 731.016 37.2184C732.81 38.8982 733.934 41.26 734.384 44.287C734.831 47.3182 735.058 51.6419 735.058 57.2538H729.164C728.154 51.423 725.851 46.7288 722.26 43.1966C718.664 39.6602 713.671 37.892 707.272 37.892C702.443 37.892 698.852 38.9277 696.494 41.0032C694.137 43.083 692.958 45.8616 692.958 49.3432C692.958 52.1513 693.939 54.4752 695.905 56.3318C697.867 58.18 700.873 60.0072 704.914 61.8048L715.018 66.0148C723.325 69.4965 729.303 73.0034 732.953 76.5398C736.599 80.072 738.426 84.7072 738.426 90.4286C738.426 97.6151 735.252 103.147 728.911 107.02C722.567 110.893 714.231 112.83 703.904 112.83C690.769 112.83 681.73 110.527 676.792 105.921Z" fill="white"/>
</svg>
