<svg id="Calque_1" data-name="Calque 1" xmlns="http://www.w3.org/2000/svg" width="84.13mm" height="25.07mm" viewBox="0 0 238.48 71.07"><defs><style>.cls-1{fill:#fff;fill-rule:evenodd;}</style></defs><path class="cls-1" d="M141.56,37.57h8.69V45.7h5V25.38h-5v8.06h-8.69V25.38h-4.91V45.7h4.91ZM189,25.38h-4.91V45.7H189ZM169.66,46.17A8.45,8.45,0,0,0,176,43.85q2.23-2.31,2.23-6.72V25.38h-4.53v12a5.32,5.32,0,0,1-1,3.66,3.79,3.79,0,0,1-2.94,1.12A3.52,3.52,0,0,1,166.92,41a5.07,5.07,0,0,1-1-3.35V25.38h-4.85v12q0,4.38,2.21,6.58A8.61,8.61,0,0,0,169.66,46.17Zm29.85-.47h4.78V29.5h6V25.38H193.54V29.5h6ZM39.77,41.48a3.21,3.21,0,0,1-1.89.47,10.12,10.12,0,0,1-3.69-.71,17.34,17.34,0,0,1-4-2.3l-2,3.85a15.58,15.58,0,0,0,4.64,2.55,15.31,15.31,0,0,0,4.89.83,8.08,8.08,0,0,0,5.57-1.74,6.05,6.05,0,0,0,1.93-4.74,5.38,5.38,0,0,0-.57-2.54,5.27,5.27,0,0,0-1.8-1.88,11.33,11.33,0,0,0-3.25-1.33l-3.38-1a7,7,0,0,1-1.81-.86,1.36,1.36,0,0,1-.56-1.17,1.54,1.54,0,0,1,.7-1.27,3.65,3.65,0,0,1,2.14-.51,7.56,7.56,0,0,1,2.7.55,10.5,10.5,0,0,1,2.74,1.54l2.25-3.65a12.85,12.85,0,0,0-3.59-2,12.45,12.45,0,0,0-4-.62,10,10,0,0,0-4.22.81A6.07,6.07,0,0,0,30,27.94a5.71,5.71,0,0,0-.89,3.1,5,5,0,0,0,1.39,3.72,9.87,9.87,0,0,0,4.3,2.18l2.81.94a7.21,7.21,0,0,1,1.75.69,2.44,2.44,0,0,1,.86.75,1.65,1.65,0,0,1-.4,2.16Zm79.31-3.22h3.19a4,4,0,0,1,1.31.17,1.69,1.69,0,0,1,.8.53,2.92,2.92,0,0,1,.49.95l1.72,5.79h5.12l-1.94-6a7.46,7.46,0,0,0-1-2,3.33,3.33,0,0,0-1.44-1.05,7.07,7.07,0,0,0-2.36-.37l-.66,0V36h.75a6.08,6.08,0,0,0,4.22-1.35,4.74,4.74,0,0,0,1.5-3.72,4.79,4.79,0,0,0-1.93-4.09,9.3,9.3,0,0,0-5.6-1.44h-9V45.7h4.87Zm0-8.94h3.6a3.86,3.86,0,0,1,2.42.62,2.36,2.36,0,0,1,.77,1.94A2.57,2.57,0,0,1,125,34a4.05,4.05,0,0,1-2.55.7h-3.35ZM58.54,46.17a8.45,8.45,0,0,0,6.36-2.32q2.23-2.31,2.23-6.72V25.38H62.6v12a5.32,5.32,0,0,1-1,3.66,3.79,3.79,0,0,1-2.94,1.12A3.52,3.52,0,0,1,55.8,41a5.07,5.07,0,0,1-1-3.35V25.38H50v12q0,4.38,2.21,6.58A8.61,8.61,0,0,0,58.54,46.17Zm19.28-6.38h3.35a9.52,9.52,0,0,0,4.3-.91,6.42,6.42,0,0,0,2.79-2.56,7.47,7.47,0,0,0,1-3.85,7.38,7.38,0,0,0-.93-3.76,6.08,6.08,0,0,0-2.77-2.47,10.13,10.13,0,0,0-4.33-.86H73V45.7h4.87Zm0-10.29H81a3.43,3.43,0,0,1,2.41.82,2.85,2.85,0,0,1,.87,2.19,3.48,3.48,0,0,1-.87,2.56,3.32,3.32,0,0,1-2.44.87h-3.1Zm31.2,12H98.89V37.41h7.22v-4H98.89v-3.9h9.41V25.38H94.05V45.7h15ZM0,0V71.07H238.48V0ZM234.38,67H4.1V4.1H234.38Z"/></svg>