<?xml version="1.0" encoding="UTF-8"?>
<svg id="white" xmlns="http://www.w3.org/2000/svg" width="1926.2mm" height="423.3mm" version="1.1" viewBox="0 0 5460 1200">
  <!-- Generator: Adobe Illustrator 30.1.0, SVG Export Plug-In . SVG Version: 2.1.1 Build 136)  -->
  <g style="isolation: isolate;">
    <g style="isolation: isolate;">
      <path d="M283.9,716.5h137.6c12.9,59.9,58.3,98.7,137.6,98.7s121.4-34,121.4-80.9-19.4-66.4-93.9-80.9l-95.5-19.4c-100.3-19.4-174.8-68-174.8-165.1s118.1-179.6,241.1-179.6,237.9,59.9,250.8,171.5h-137.6c-11.3-46.9-46.9-77.7-114.9-77.7s-105.2,27.5-105.2,72.8,21,61.5,79.3,72.8l95.5,19.4c102,21,186.1,59.9,186.1,171.5s-114.9,191-258.9,191-260.5-72.8-267-192.6l-1.6-1.6Z" style="fill: #fff;"/>
      <path d="M871.4,692.2v-393.2h131.1v380.3c0,85.8,48.5,131.1,134.3,131.1s134.3-45.3,134.3-131.1v-380.3h131.1v393.2c0,121.4-90.6,215.2-265.4,215.2s-265.4-95.5-265.4-215.2Z" style="fill: #fff;"/>
      <path d="M1487.9,299h318.8c127.8,0,205.5,71.2,205.5,187.7s-77.7,186.1-205.5,186.1h-187.7v224.9h-131.1V299ZM1879.6,486.7h0c0-55-32.4-89-85.8-89h-174.8v178h174.8c51.8,0,85.8-34,85.8-87.4v-1.6Z" style="fill: #fff;"/>
      <path d="M2068.9,299h453.1v98.7h-325.3v152.1h292.9v98.7h-292.9v152.1h325.3v98.7h-453.1V299Z" style="fill: #fff;"/>
      <path d="M2590,299h341.5c106.8,0,184.5,61.5,184.5,160.2s-77.7,142.4-127.8,142.4c80.9,0,111.7,48.5,111.7,111.7v184.5h-132.7v-168.3c0-48.5-27.5-71.2-72.8-71.2h-174.8v239.5h-127.8V299h-1.6ZM2983.3,478.6c0-55-32.4-84.2-85.8-84.2h-179.6v166.7h179.6c53.4,0,85.8-29.1,85.8-84.2v1.6Z" style="fill: #fff;"/>
      <path d="M3607.9,650.2h-281.6v247.6h-127.8V299h127.8v247.6h281.6v-247.6h127.8v598.8h-127.8v-247.6Z" style="fill: #fff;"/>
      <path d="M3821.5,692.2v-393.2h131.1v380.3c0,85.8,48.5,131.1,134.3,131.1s134.3-45.3,134.3-131.1v-380.3h131.1v393.2c0,121.4-90.6,215.2-265.4,215.2s-265.4-95.5-265.4-215.2h0Z" style="fill: #fff;"/>
      <path d="M4436.5,299h131.1v598.8h-131.1V299Z" style="fill: #fff;"/>
      <path d="M4834.6,397.7h-212v-98.7h553.5v98.7h-212v500.1h-131.1v-500.1h1.6Z" style="fill: #fff;"/>
    </g>
  </g>
</svg>