<svg id="Calque_1" data-name="Calque 1" xmlns="http://www.w3.org/2000/svg" viewBox="0 0 413.45 177.64"><defs><style>.cls-1{fill:#fff;stroke-width:0}</style></defs><path class="cls-1" d="M221.1 59.09c-8.51-14.89-24.58-25.01-42.97-25.01-9.3 0-18.17 2.75-25.78 7.18v-3.47c0-2.45-1.99-4.44-4.44-4.44h-14.57c-2.45 0-4.44 1.99-4.44 4.44v134.53c0 2.93 2.37 5.3 5.3 5.3h14.11a5.29 5.29 0 0 0 5.31-5.29v-46.35c7.18 4.23 15.64 6.76 24.51 6.76 18.51 0 34.65-10.25 43.12-25.35-3.08-7.47-4.79-15.69-4.79-24.33s1.65-16.6 4.64-23.98Zm-43.95 49.72c-13.95 0-25.29-11.34-25.29-25.51s11.34-25.29 25.29-25.29 25.51 11.34 25.51 25.29-11.33 25.51-25.51 25.51M307.67 47.72c-8.87-9.09-20.73-14.34-33.8-14.34-26.15 0-47.62 21.98-47.62 49.24 0 13.1 3.97 24.72 11.67 33.6 8.4 9.51 20.6 15.77 34.78 16.07h4.81c5.7 0 17.41-2.57 27.59-9.15 2.51-1.62 3.15-5.03 1.51-7.52l-6.83-10.41c-1.64-2.5-5.03-3.26-7.5-1.59-4.22 2.85-8.46 4.71-17.47 4.71-12.02 0-21.88-8.38-24.16-16.95h57.28c.6 0 1.16-.09 1.74-.16a64.28 64.28 0 0 1-.57-8.49c0-9.21 1.95-17.94 5.43-25.79-1.98-3.45-4.3-6.6-6.84-9.2Zm-56.25 24.82c4.01-10.83 13.57-16.71 22.93-16.84 9.35-.13 19.37 5.76 22.59 16.84zM413.4 79.62c.16-11.71-5.62-23.87-13.12-31.55-8.87-9.09-20.73-14.34-33.8-14.34-17.1 0-32.15 9.43-40.56 23.56a50.069 50.069 0 0 0-7.07 25.68c0 9.92 2.28 18.98 6.73 26.65 1.43 2.46 3.07 4.79 4.94 6.95 8.4 9.51 20.6 15.77 34.78 16.07h4.81c5.7 0 17.41-2.58 27.58-9.15 2.51-1.62 3.15-5.03 1.51-7.52l-6.83-10.41c-1.64-2.5-5.02-3.26-7.5-1.59-4.22 2.85-8.46 4.71-17.47 4.71-12.02 0-21.88-8.38-24.16-16.95h64.55c3.14 0 5.67-2.55 5.65-5.69l-.05-6.41Zm-46.44-23.53c9.35-.13 19.37 5.76 22.59 16.84h-45.52c4.01-10.83 13.57-16.71 22.93-16.84M65.44 54.56H40.09c-.94 0-1.71.76-1.71 1.71v36.28c.04 1.74.21 3.28.45 4.71 1.62 6.36 8.26 10.36 16.3 10.68 4.29.17 8.49-.23 12.05-.88 2.92-.54 5.86.82 7.28 3.43 2.13 3.93 4.29 7.83 6.32 11.34 1.55 2.66.47 5.71-2.4 6.82-7.73 2.99-16.42 3.93-20.72 3.93-1.69 0-2.96 0-3.8-.21-15.35-.7-39.63-11.86-39.96-34.5h-.03V56.29c0-.94-.76-1.71-1.71-1.71H6.83c-3.78 0-6.84-3.06-6.84-6.84v-7.6c0-3.78 3.06-6.84 6.84-6.84h5.33c.94 0 1.71-.76 1.71-1.71V7.38c0-3.78 3.06-6.84 6.84-6.84h10.84c3.78 0 6.84 3.06 6.84 6.84v24.2c0 .94.76 1.71 1.71 1.71h25.32c3.77 0 6.82 3.05 6.84 6.81l.03 7.61a6.835 6.835 0 0 1-6.84 6.86ZM118.51 110.76c0-1.97-1.2-3.68-2.96-4.56-3.71-1.84-6.42-4.79-7.38-8.56-.24-1.43-.41-2.98-.45-4.73V38.32c0-2.72-2.21-4.93-4.93-4.93H88.14c-2.72 0-4.93 2.21-4.93 4.93v59.91h.03c.26 18.36 16.15 29.19 30.34 33.05 2.47.67 4.92-1.13 4.92-3.7v-16.83Z"/><rect class="cls-1" x="83.41" width="24.2" height="24.09" rx="4.94" ry="4.94"/></svg>